<svg viewBox="0 0 337 192" fill="none" xmlns="http://www.w3.org/2000/svg">
                        <path fill-rule="evenodd" clip-rule="evenodd" d="M31.4143 93.2274C28.0401 107.265 22.3919 120.092 15.08 132.247C14.7416 132.81 15.5651 133.309 15.9121 132.767C23.4983 120.923 28.7872 107.302 31.9901 93.3968C32.0819 92.9986 31.5099 92.8285 31.4143 93.2274Z" fill="#391c03" fill-opacity="0.6"></path>
                        <path fill-rule="evenodd" clip-rule="evenodd" d="M19.6606 110.087C15.9244 117.557 11.7732 124.576 5.13369 130.336C4.72636 130.689 5.34157 131.235 5.75382 130.89C12.4684 125.281 16.4048 117.68 19.983 110.256C20.0764 110.061 19.7596 109.891 19.6606 110.087Z" fill="#391c03" fill-opacity="0.6"></path>
                        <path fill-rule="evenodd" clip-rule="evenodd" d="M16.4837 103.17C12.7322 112.914 7.13146 121.368 0.120477 129.221C-0.267289 129.655 0.36947 130.286 0.781139 129.856C8.04776 122.267 13.4174 113 16.9836 103.303C17.0958 102.998 16.5985 102.872 16.4837 103.17Z" fill="#391c03" fill-opacity="0.6"></path>
                        <path fill-rule="evenodd" clip-rule="evenodd" d="M42.6664 107.122C40.4669 114.017 37.2662 120.138 34.0408 126.528C33.8554 126.896 34.3493 127.188 34.5721 126.852C38.4291 121.012 40.9963 113.946 42.9914 107.215C43.0562 106.998 42.7344 106.909 42.6664 107.122Z" fill="#391c03" fill-opacity="0.6"></path>
                        <path fill-rule="evenodd" clip-rule="evenodd" d="M53.7387 100.093C50.6756 110.936 45.4692 120.261 39.0511 129.498C38.8397 129.803 39.3375 130.188 39.5789 129.896C46.5964 121.38 51.2607 110.702 53.9951 100.161C54.0381 99.9991 53.7844 99.9304 53.7387 100.093Z" fill="#391c03" fill-opacity="0.6"></path>
                        <path fill-rule="evenodd" clip-rule="evenodd" d="M57.4567 111.15C54.6448 116.264 51.7195 121.329 49.0409 126.523C48.8542 126.885 49.356 127.198 49.5595 126.846C52.4783 121.802 55.1701 116.591 57.9585 111.463C58.1464 111.117 57.6458 110.805 57.4567 111.15Z" fill="#391c03" fill-opacity="0.6"></path>
                        <path fill-rule="evenodd" clip-rule="evenodd" d="M62.3226 122.146C59.8804 125.6 57.4029 129.039 55.0519 132.538C54.8175 132.887 55.4391 133.192 55.6867 132.852C58.1781 129.423 60.546 125.93 62.9478 122.455C63.1829 122.115 62.5613 121.809 62.3226 122.146Z" fill="#391c03" fill-opacity="0.6"></path>
                        <path fill-rule="evenodd" clip-rule="evenodd" d="M100.6 131.069C95.1539 136.5 88.6055 139.728 81.2356 141.347C80.8198 141.438 81.0028 142.063 81.4092 141.995C88.8545 140.744 95.5926 136.845 100.93 131.409C101.145 131.191 100.816 130.854 100.6 131.069Z" fill="#391c03" fill-opacity="0.6"></path>
                        <path fill-rule="evenodd" clip-rule="evenodd" d="M89.6723 133.027C84.4871 135.61 79.1723 136.907 73.3166 137.399C72.9022 137.433 72.8868 138.014 73.3166 138C79.199 137.8 84.8507 136.101 89.8935 133.373C90.1369 133.241 89.9203 132.903 89.6723 133.027Z" fill="#391c03" fill-opacity="0.6"></path>
                        <path fill-rule="evenodd" clip-rule="evenodd" d="M66.9788 140.85C64.8511 137.988 61.5978 136.008 58.2937 136C57.8879 135.999 57.9166 136.653 58.2937 136.711C61.5978 137.222 64.3211 138.413 66.8711 140.976C66.9458 141.05 67.0437 140.937 66.9788 140.85Z" fill="#391c03" fill-opacity="0.6"></path>
                        <path fill-rule="evenodd" clip-rule="evenodd" d="M73.0262 144.16C75.2566 146.234 78.7696 147.103 81.6575 146.99C82.119 146.971 82.1093 146.26 81.6575 146.221C80.0912 146.084 78.5502 145.945 77.0287 145.494C75.6882 145.095 74.4348 144.451 73.1106 144.004C73.0308 143.977 72.96 144.099 73.0262 144.16Z" fill="#391c03" fill-opacity="0.6"></path>
                        <path fill-rule="evenodd" clip-rule="evenodd" d="M85.2047 151.992C91.235 150.002 96.9578 146 101.875 141.76C102.228 141.456 101.758 140.778 101.392 141.072C96.197 145.232 90.694 148.307 85.0791 151.664C84.9169 151.761 85.0268 152.051 85.2047 151.992Z" fill="#391c03" fill-opacity="0.6"></path>
                        <path fill-rule="evenodd" clip-rule="evenodd" d="M115.022 150.218C116.757 153.248 119.371 156.048 122.475 157.953C122.795 158.15 123.196 157.684 122.892 157.455C119.968 155.246 117.486 152.931 115.3 150.068C115.182 149.914 114.923 150.047 115.022 150.218Z" fill="#391c03" fill-opacity="0.6"></path>
                        <path fill-rule="evenodd" clip-rule="evenodd" d="M134.104 133.265C137.857 133.356 140.869 135.952 142.557 139.867C142.676 140.143 143.083 139.949 142.985 139.651C141.579 135.386 137.876 132.822 134.104 133.01C133.966 133.016 133.965 133.262 134.104 133.265Z" fill="#391c03" fill-opacity="0.6"></path>
                        <path fill-rule="evenodd" clip-rule="evenodd" d="M171.136 137.285C175.046 137.792 177.813 140.942 178.369 144.769C178.421 145.127 179.025 145.045 178.999 144.684C178.701 140.576 175.146 137.318 171.136 137.001C170.95 136.987 170.959 137.263 171.136 137.285Z" fill="#391c03" fill-opacity="0.6"></path>
                        <path fill-rule="evenodd" clip-rule="evenodd" d="M150.006 157.236C150.913 160.767 154.098 164.155 157.527 164.986C158.025 165.106 158.187 164.395 157.734 164.204C154.247 162.727 151.99 160.658 150.331 157.093C150.241 156.9 149.955 157.036 150.006 157.236Z" fill="#391c03" fill-opacity="0.6"></path>
                        <path fill-rule="evenodd" clip-rule="evenodd" d="M185.073 156.238C187.682 157.073 189.111 159.732 189.497 162.781C189.541 163.133 189.986 163.028 189.997 162.7C190.1 159.372 187.724 156.594 185.127 156.003C185 155.973 184.945 156.197 185.073 156.238Z" fill="#391c03" fill-opacity="0.6"></path>
                        <path fill-rule="evenodd" clip-rule="evenodd" d="M169.024 172.261C170.674 175.369 173.342 178.186 176.405 179.94C176.861 180.202 177.24 179.535 176.814 179.245C173.831 177.223 171.454 174.993 169.334 172.081C169.2 171.898 168.915 172.054 169.024 172.261Z" fill="#391c03" fill-opacity="0.6"></path>
                        <path fill-rule="evenodd" clip-rule="evenodd" d="M183.95 180.674C182.642 179.078 181.269 177.378 179.567 176.067C179.313 175.872 178.828 176.14 179.062 176.399C180.466 177.949 182.087 179.348 183.489 180.904C183.693 181.13 184.151 180.919 183.95 180.674Z" fill="#391c03" fill-opacity="0.6"></path>
                        <path fill-rule="evenodd" clip-rule="evenodd" d="M220.977 159.645C218.682 154.293 215.753 149.111 212.713 144.185C212.449 143.759 211.807 144.143 212.057 144.585C214.939 149.657 217.665 154.838 220.587 159.883C220.74 160.148 221.094 159.917 220.977 159.645Z" fill="#391c03" fill-opacity="0.6"></path>
                        <path fill-rule="evenodd" clip-rule="evenodd" d="M198.977 175.563C197.711 172.064 196.242 168.502 194.629 165.203C194.404 164.742 193.86 165.147 194.034 165.61C195.338 169.085 196.902 172.586 198.55 175.854C198.717 176.185 199.097 175.895 198.977 175.563Z" fill="#391c03" fill-opacity="0.6"></path>
                        <path fill-rule="evenodd" clip-rule="evenodd" d="M245.962 141.645C242.539 136.152 239.233 130.582 235.675 125.164C235.43 124.791 234.83 125.12 235.046 125.505C238.203 131.128 241.838 136.548 245.516 141.887C245.694 142.146 246.131 141.914 245.962 141.645Z" fill="#391c03" fill-opacity="0.6"></path>
                        <path fill-rule="evenodd" clip-rule="evenodd" d="M265.968 120.594C263.361 115.899 261.75 110.583 258.702 106.169C258.43 105.776 257.799 106.138 258.063 106.555C260.945 111.103 262.183 116.719 265.564 120.915C265.754 121.151 266.109 120.848 265.968 120.594Z" fill="#391c03" fill-opacity="0.6"></path>
                        <path fill-rule="evenodd" clip-rule="evenodd" d="M143.345 62.8998C145.633 57.6314 148.327 52.9301 151.908 48.6306C152.196 48.2854 151.743 47.7727 151.443 48.1105C147.78 52.2337 144.77 57.2512 143.01 62.7417C142.941 62.9584 143.254 63.1091 143.345 62.8998Z" fill="#391c03" fill-opacity="0.6"></path>
                        <path fill-rule="evenodd" clip-rule="evenodd" d="M148.332 58.9161C151.328 54.1919 155.142 50.5745 159.858 47.5587C160.183 47.3511 159.894 46.8523 159.553 47.0424C154.706 49.7501 150.72 53.9322 148.025 58.7379C147.913 58.9374 148.21 59.108 148.332 58.9161Z" fill="#391c03" fill-opacity="0.6"></path>
                        <path fill-rule="evenodd" clip-rule="evenodd" d="M156.318 53.951C160.073 50.745 164.095 48.3795 168.788 46.5894C169.154 46.45 169.013 45.893 168.62 46.0182C163.859 47.5366 159.468 50.2266 156.053 53.7019C155.889 53.8685 156.14 54.1028 156.318 53.951Z" fill="#391c03" fill-opacity="0.6"></path>
                        <path fill-rule="evenodd" clip-rule="evenodd" d="M167.224 50.9912C171.321 49.6433 175.484 48.944 179.714 48.7413C180.094 48.7236 180.097 47.9896 179.714 48.0001C175.414 48.1136 171.247 49.0092 167.127 50.5551C166.905 50.6388 166.997 51.0661 167.224 50.9912Z" fill="#391c03" fill-opacity="0.6"></path>
                        <path fill-rule="evenodd" clip-rule="evenodd" d="M156.64 6.02135C150.123 8.7102 143.645 11.4984 137.203 14.3365C136.744 14.5387 137.145 15.1587 137.602 14.9619C144.06 12.1743 150.499 9.33019 156.879 6.39455C157.154 6.26814 156.913 5.90939 156.64 6.02135Z" fill="#391c03" fill-opacity="0.6"></path>
                        <path fill-rule="evenodd" clip-rule="evenodd" d="M103.359 34.9367C110.968 27.5085 116.31 18.0249 125.82 12.6714C126.23 12.4405 125.868 11.8315 125.453 12.0445C115.839 16.9873 110.136 26.8669 103.059 34.6368C102.875 34.8385 103.163 35.1297 103.359 34.9367Z" fill="#391c03" fill-opacity="0.6"></path>
                        <path fill-rule="evenodd" clip-rule="evenodd" d="M94.2577 42.9514C101.757 35.3324 106.547 25.3111 113.907 17.5527C114.19 17.2544 113.765 16.8073 113.473 17.09C105.878 24.4378 100.694 34.4441 94.0407 42.7194C93.9132 42.8784 94.1131 43.0989 94.2577 42.9514Z" fill="#391c03" fill-opacity="0.6"></path>
                        <path fill-rule="evenodd" clip-rule="evenodd" d="M118.205 24.9523C121.868 20.1616 125.851 16.1368 130.832 12.7023C131.221 12.4347 130.866 11.8026 130.457 12.0607C125.436 15.2321 120.96 19.6607 118.017 24.8419C117.945 24.9675 118.122 25.0607 118.205 24.9523Z" fill="#391c03" fill-opacity="0.6"></path>
                        <path fill-rule="evenodd" clip-rule="evenodd" d="M133.204 15.9751C138.819 12.2785 144.396 8.50095 149.863 4.59212C150.185 4.36203 149.883 3.82693 149.546 4.05569C143.971 7.82926 138.485 11.75 133.061 15.7338C132.919 15.8385 133.05 16.0773 133.204 15.9751Z" fill="#391c03" fill-opacity="0.6"></path>
                        <path fill-rule="evenodd" clip-rule="evenodd" d="M168.048 114.325C168.04 115.769 168.032 117.214 168.024 118.659C168.021 119.113 168.979 119.114 168.977 118.659C168.969 117.214 168.962 115.769 168.954 114.325C168.951 113.892 168.049 113.891 168.048 114.325Z" fill="#391c03" fill-opacity="0.6"></path>
                        <path fill-rule="evenodd" clip-rule="evenodd" d="M183.441 94.284C183.287 95.7708 183.131 97.2576 183.001 98.7471C182.971 99.0914 183.459 99.0771 183.499 98.7471C183.682 97.2616 183.839 95.7721 183.998 94.284C184.038 93.9043 183.48 93.9064 183.441 94.284Z" fill="#391c03" fill-opacity="0.6"></path>
                        <path fill-rule="evenodd" clip-rule="evenodd" d="M206.494 77.2302C206.321 78.7292 206.145 80.2264 206.001 81.7285C205.967 82.093 206.56 82.088 206.597 81.7285C206.752 80.2301 206.873 78.7311 206.999 77.2302C207.025 76.9187 206.529 76.9279 206.494 77.2302Z" fill="#391c03" fill-opacity="0.6"></path>
                        <path fill-rule="evenodd" clip-rule="evenodd" d="M207.001 80.1844C207.153 82.3631 207.273 84.5492 207.486 86.7212C207.522 87.0873 208.028 87.0985 207.999 86.7212C207.83 84.5373 207.568 82.3608 207.339 80.1844C207.314 79.9438 206.983 79.9333 207.001 80.1844Z" fill="#391c03" fill-opacity="0.6"></path>
                        <path fill-rule="evenodd" clip-rule="evenodd" d="M185.001 97.199C185.132 99.3617 185.282 101.52 185.443 103.679C185.475 104.109 186.039 104.105 185.998 103.679C185.794 101.516 185.578 99.3573 185.345 97.199C185.317 96.9411 184.983 96.9263 185.001 97.199Z" fill="#391c03" fill-opacity="0.6"></path>
                        <path fill-rule="evenodd" clip-rule="evenodd" d="M169.147 117.127C168.83 118.707 169.052 120.36 169.551 121.827C169.683 122.217 170.102 121.878 169.977 121.492C169.523 120.098 169.413 118.68 169.409 117.174C169.408 116.974 169.187 116.931 169.147 117.127Z" fill="#391c03" fill-opacity="0.6"></path>
                        <path fill-rule="evenodd" clip-rule="evenodd" d="M288.617 90.3891C289.605 95.8893 290.04 101.449 289.754 107.008C289.466 112.614 288.109 117.966 287.009 123.475C286.903 124.001 287.799 124.228 287.997 123.699C291.945 113.15 291.569 100.987 289.344 90.2247C289.262 89.8292 288.547 90.0013 288.617 90.3891Z" fill="#391c03" fill-opacity="0.6"></path>
                        <path fill-rule="evenodd" clip-rule="evenodd" d="M285.386 106.224C285.555 112.921 284.219 119.179 282.022 125.547C281.86 126.014 282.635 126.185 282.824 125.746C285.476 119.576 286.305 112.794 285.905 106.224C285.887 105.928 285.379 105.923 285.386 106.224Z" fill="#391c03" fill-opacity="0.6"></path>
                        <path fill-rule="evenodd" clip-rule="evenodd" d="M278.29 112.26C278.292 118.983 276.894 125.033 275.018 131.498C274.867 132.022 275.706 132.201 275.919 131.717C278.572 125.679 279.293 118.683 278.9 112.26C278.879 111.916 278.29 111.91 278.29 112.26Z" fill="#391c03" fill-opacity="0.6"></path>
                        <path fill-rule="evenodd" clip-rule="evenodd" d="M306.001 67.1593C306.936 78.2099 308.425 89.1195 308.57 100.223C308.642 105.758 308.535 111.294 308.272 116.824C308.01 122.342 307.196 127.886 307.127 133.402C307.119 134.065 308.4 134.257 308.52 133.563C310.396 122.711 310.06 111.167 309.784 100.223C309.507 89.2678 309.027 77.8681 306.374 67.1161C306.33 66.9377 305.985 66.9749 306.001 67.1593Z" fill="#391c03" fill-opacity="0.6"></path>
                        <path fill-rule="evenodd" clip-rule="evenodd" d="M314 77.1547C314.582 87.281 316.194 97.3205 316.378 107.476C316.451 111.507 316.376 115.541 316.215 119.57C316.047 123.784 315.302 128.15 315.628 132.35C315.682 133.041 317.007 133.302 317.161 132.525C317.989 128.326 317.778 123.825 317.905 119.57C318.025 115.539 318.039 111.507 317.903 107.476C317.562 97.3832 316.734 87.0203 314.369 77.1129C314.327 76.9384 313.989 76.977 314 77.1547Z" fill="#391c03" fill-opacity="0.6"></path>
                        <path fill-rule="evenodd" clip-rule="evenodd" d="M323.002 84.1943C324 92.3686 324.801 100.51 324.833 108.762C324.865 117.057 323.651 125.148 323.297 133.388C323.267 134.09 324.315 134.244 324.466 133.554C326.207 125.665 326.09 116.819 325.891 108.762C325.689 100.527 324.975 92.2148 323.375 84.141C323.331 83.9246 322.974 83.9691 323.002 84.1943Z" fill="#391c03" fill-opacity="0.6"></path>
                        <path fill-rule="evenodd" clip-rule="evenodd" d="M333.077 90.3104C333.69 104.304 333.66 118.343 333.002 132.324C332.96 133.225 333.572 133.226 333.611 132.324C334.207 118.332 334.116 104.257 333.357 90.3104C333.335 89.9035 333.058 89.8896 333.077 90.3104Z" fill="#391c03" fill-opacity="0.6"></path>
                        <path fill-rule="evenodd" clip-rule="evenodd" d="M265.008 51.4106C266.409 57.8621 267.745 64.3291 269.277 70.7568C269.379 71.1844 270.079 70.9999 269.993 70.5768C268.672 64.1111 267.155 57.6783 265.702 51.2358C265.609 50.8224 264.919 50.9984 265.008 51.4106Z" fill="#391c03" fill-opacity="0.6"></path>
                        <path fill-rule="evenodd" clip-rule="evenodd" d="M273.008 60.3532C274.993 69.0862 276.143 77.7196 276.06 86.632C276.055 87.124 276.915 87.1213 276.934 86.632C277.278 77.7895 276.299 68.7551 273.633 60.2028C273.522 59.8474 272.927 59.9984 273.008 60.3532Z" fill="#391c03" fill-opacity="0.6"></path>
                        <path fill-rule="evenodd" clip-rule="evenodd" d="M156.701 126.016C152.118 127.705 147.898 130.124 144.095 133.416C143.825 133.649 144.187 134.172 144.465 133.943C148.266 130.822 152.363 128.3 156.832 126.537C157.126 126.421 157.004 125.904 156.701 126.016Z" fill="#391c03" fill-opacity="0.6"></path>
                        <path fill-rule="evenodd" clip-rule="evenodd" d="M187.799 144.002C185.182 143.974 182.643 144.238 180.181 144.714C179.864 144.775 179.997 145.051 180.322 144.992C182.762 144.551 185.238 144.324 187.799 144.23C188.064 144.22 188.07 144.005 187.799 144.002Z" fill="#391c03" fill-opacity="0.6"></path>
                        <path fill-rule="evenodd" clip-rule="evenodd" d="M95.0126 67.3857C96.8111 72.8875 103.485 73.3615 108.301 72.8366C113.349 72.2876 121.206 68.9745 121.992 63.1118C122.108 62.2494 120.901 61.4821 120.443 62.4509C118.328 66.9257 113.981 70.0325 109.161 71.0254C104.577 71.9722 97.8846 72.2762 95.4848 67.1841C95.3592 66.9176 94.9206 67.1051 95.0126 67.3857Z" fill="#391c03" fill-opacity="0.6"></path>
                        <path fill-rule="evenodd" clip-rule="evenodd" d="M105.146 48.5671C108.231 50.3261 111.745 50.9784 114.467 53.4281C117.275 55.9529 118.71 58.9908 120.158 62.4507C120.649 63.6236 122.148 62.7107 121.988 61.6459C121.406 57.7747 118.747 54.335 115.844 51.9919C112.691 49.4469 109.174 48.8588 105.372 48.0073C105.06 47.9371 104.842 48.3929 105.146 48.5671Z" fill="#391c03" fill-opacity="0.6"></path>
                        <path fill-rule="evenodd" clip-rule="evenodd" d="M149.017 150.343C150.54 154.824 155.197 160.3 160.193 160.993C160.861 161.085 161.349 160.241 160.681 159.847C158.505 158.566 156.297 157.593 154.378 155.899C152.461 154.205 151.016 152.184 149.541 150.125C149.366 149.88 148.906 150.018 149.017 150.343Z" fill="#391c03" fill-opacity="0.6"></path>
                        <path fill-rule="evenodd" clip-rule="evenodd" d="M178.998 148.68C178.528 143.509 173.558 139.706 168.24 139.062C164.718 138.636 162.113 140.469 159.457 142.429C156.011 144.969 152.754 147.737 149.334 150.311C148.403 151.011 149.609 152.454 150.603 151.86C155.259 149.074 158.847 144.836 163.634 142.242C169.173 139.241 176.68 142.99 177.835 148.828C177.956 149.44 179.055 149.308 178.998 148.68Z" fill="#391c03" fill-opacity="0.6"></path>
                        <path fill-rule="evenodd" clip-rule="evenodd" d="M168.017 168.347C169.562 173.085 174.345 178.275 179.23 178.993C179.862 179.087 180.336 178.226 179.695 177.834C177.627 176.57 175.446 175.689 173.545 174.114C171.508 172.426 170 170.335 168.516 168.126C168.349 167.879 167.909 168.018 168.017 168.347Z" fill="#391c03" fill-opacity="0.6"></path>
                        <path fill-rule="evenodd" clip-rule="evenodd" d="M191.998 166.117C191.586 161.68 187.426 158.331 182.942 158.016C180.562 157.848 178.761 159.051 176.926 160.406C173.961 162.596 171.208 165.073 168.312 167.352C167.442 168.038 168.572 169.444 169.503 168.862C173.075 166.633 175.943 163.491 179.475 161.201C183.829 158.376 189.857 161.401 190.906 166.262C191.034 166.854 192.055 166.733 191.998 166.117Z" fill="#391c03" fill-opacity="0.6"></path>
                        <path fill-rule="evenodd" clip-rule="evenodd" d="M116.018 145.328C117.751 150.095 122.895 155.209 128.211 155.992C128.858 156.088 129.345 155.259 128.687 154.898C126.418 153.652 124.055 152.751 121.988 151.163C119.771 149.46 118.126 147.356 116.528 145.119C116.359 144.884 115.905 145.019 116.018 145.328Z" fill="#391c03" fill-opacity="0.6"></path>
                        <path fill-rule="evenodd" clip-rule="evenodd" d="M141.998 142.887C141.546 138.025 136.821 134.357 131.807 134.016C128.844 133.816 126.589 135.494 124.354 137.159C121.279 139.451 118.374 141.959 115.332 144.294C114.407 145.005 115.605 146.458 116.595 145.858C120.636 143.41 123.866 139.93 127.854 137.403C132.788 134.278 139.698 137.63 140.84 143.037C140.969 143.652 142.057 143.523 141.998 142.887Z" fill="#391c03" fill-opacity="0.6"></path>
                        <path fill-rule="evenodd" clip-rule="evenodd" d="M58.268 142.217C60.3325 142.219 61.7497 141.723 63.2552 143.086C64.2887 144.021 65.3898 144.908 66.5304 145.717C67.7685 146.594 69.1169 147.467 70.5854 147.934C72.1214 148.421 74.3319 147.796 75.5979 148.809C76.386 149.441 77.524 148.356 76.7314 147.705C75.4031 146.613 74.2858 146.842 72.6174 146.751C70.1738 146.614 68.0204 145.101 66.1403 143.689C65.1957 142.981 64.1654 141.693 63.0624 141.225C61.6491 140.624 59.606 141.384 58.196 141.692C57.8908 141.759 57.9629 142.217 58.268 142.217Z" fill="#391c03" fill-opacity="0.6"></path>
                        <path fill-rule="evenodd" clip-rule="evenodd" d="M147.7 44.3016C145.267 47.6946 142.749 51.2239 141.065 55.0851C140.751 55.8038 141.653 56.3675 142.098 55.7063C144.453 52.2038 146.459 48.4774 148.873 45.0076C149.386 44.2709 148.212 43.5876 147.7 44.3016Z" fill="#391c03" fill-opacity="0.6"></path>
                        <path fill-rule="evenodd" clip-rule="evenodd" d="M162.077 39.6199C164.664 42.7311 167.969 45.3614 172.015 46.9437C172.76 47.2351 173.42 46.3176 172.669 45.9668C168.888 44.1988 165.533 42.0396 162.812 39.1256C162.48 38.7701 161.764 39.2443 162.077 39.6199Z" fill="#391c03" fill-opacity="0.6"></path>
                        <path fill-rule="evenodd" clip-rule="evenodd" d="M222.349 58.917C218.389 59.5142 214.852 59.46 211.041 58.0563C209.995 57.6708 209.556 59.3767 210.585 59.7686C214.374 61.213 218.821 61.5204 222.63 59.9675C223.267 59.7079 223.021 58.8156 222.349 58.917Z" fill="#391c03" fill-opacity="0.6"></path>
                        <path fill-rule="evenodd" clip-rule="evenodd" d="M275.928 136.466C276.277 138.965 275.772 141.47 274.479 143.622C273.193 145.766 271.412 146.75 269.308 147.861C268.659 148.205 269.142 149.1 269.774 148.991C275.123 148.064 278.087 141.172 276.63 136.267C276.491 135.796 275.863 136.003 275.928 136.466Z" fill="#391c03" fill-opacity="0.6"></path>
                        <path fill-rule="evenodd" clip-rule="evenodd" d="M254.414 155.189C253.935 157.031 253.408 158.732 252.113 160.169C250.849 161.57 249.192 162.309 247.423 162.8C246.786 162.976 246.893 164.037 247.582 163.999C251.58 163.777 255.643 159.391 254.915 155.189C254.869 154.924 254.476 154.95 254.414 155.189Z" fill="#391c03" fill-opacity="0.6"></path>
                        <path fill-rule="evenodd" clip-rule="evenodd" d="M227.4 169.237C226.021 174.864 221.791 178.115 216.686 178.385C215.763 178.434 215.78 179.879 216.686 179.964C222.231 180.485 227.32 175.245 227.997 169.327C228.042 168.942 227.487 168.878 227.4 169.237Z" fill="#391c03" fill-opacity="0.6"></path>
                        <path fill-rule="evenodd" clip-rule="evenodd" d="M201.341 180.171C199.323 183.829 196.031 185.721 191.687 185.538C190.908 185.506 190.719 186.709 191.501 186.857C195.928 187.695 201.028 184.751 201.992 180.435C202.072 180.073 201.539 179.813 201.341 180.171Z" fill="#391c03" fill-opacity="0.6"></path>
                        <path fill-rule="evenodd" clip-rule="evenodd" d="M172.313 169.892C175.736 170.518 178.179 172.661 180.014 175.723C180.39 176.35 181.233 175.806 180.939 175.145C179.412 171.717 175.991 169.505 172.541 169.005C172.006 168.927 171.759 169.79 172.313 169.892Z" fill="#391c03" fill-opacity="0.6"></path>
                        <path fill-rule="evenodd" clip-rule="evenodd" d="M154.166 152.697C157.166 154.81 159.03 157.594 160.934 160.735C161.258 161.27 162.201 160.933 161.962 160.281C160.648 156.702 157.659 153.885 154.525 152.053C154.121 151.817 153.788 152.431 154.166 152.697Z" fill="#391c03" fill-opacity="0.6"></path>
                        <path fill-rule="evenodd" clip-rule="evenodd" d="M118.174 148.523C121.571 149.983 124.163 152.452 126.072 155.737C126.418 156.333 127.216 155.813 126.945 155.198C125.321 151.516 122.035 148.872 118.308 148.008C117.984 147.933 117.878 148.397 118.174 148.523Z" fill="#391c03" fill-opacity="0.6"></path>
                        <path fill-rule="evenodd" clip-rule="evenodd" d="M114.119 171.503C119.055 174.734 128.897 178.603 133.86 173.599C134.262 173.193 133.72 172.425 133.217 172.785C127.765 176.681 119.801 173.25 114.327 171.02C114.03 170.9 113.879 171.346 114.119 171.503Z" fill="#391c03" fill-opacity="0.6"></path>
                        <path fill-rule="evenodd" clip-rule="evenodd" d="M148.2 177.936C153.876 180.565 161.633 183.171 166.781 178.13C167.434 177.489 166.483 176.639 165.797 177.163C160.412 181.28 154.296 179.166 148.512 177.209C148.083 177.065 147.783 177.743 148.2 177.936Z" fill="#391c03" fill-opacity="0.6"></path>
                        <path fill-rule="evenodd" clip-rule="evenodd" d="M86.1047 159.584C91.3072 164.043 99.3764 165.446 105.707 162.303C106.311 162.002 105.897 161.048 105.236 161.255C98.7091 163.304 92.2326 162.847 86.5389 159.055C86.207 158.834 85.8064 159.328 86.1047 159.584Z" fill="#391c03" fill-opacity="0.6"></path>
                        <path fill-rule="evenodd" clip-rule="evenodd" d="M81.4829 36.8066C70.5624 35.3181 59.755 33.0127 48.9088 31.013C48.0052 30.8468 47.6002 32.327 48.5235 32.5409C59.4086 35.0505 70.454 36.4913 81.4829 37.9946C82.1758 38.0893 82.1689 36.8997 81.4829 36.8066Z" fill="#391c03" fill-opacity="0.6"></path>
                        <path fill-rule="evenodd" clip-rule="evenodd" d="M0.169114 23.4507C12.2958 27.5636 25.3603 30.927 38.2675 31.9974C39.0985 32.0659 39.2998 30.7668 38.4662 30.6382C25.5177 28.6333 12.8946 26.5593 0.299635 23.0114C-0.00731933 22.9253 -0.124067 23.3512 0.169114 23.4507Z" fill="#391c03" fill-opacity="0.6"></path>
                        <path fill-rule="evenodd" clip-rule="evenodd" d="M105.03 50.3961C107.91 55.6154 113.159 59.2397 119.065 60.9639C120.005 61.2386 120.4 59.8632 119.47 59.5812C113.723 57.838 109.205 54.474 105.457 50.0853C105.255 49.85 104.894 50.1503 105.03 50.3961Z" fill="#391c03" fill-opacity="0.6"></path>
                        <path fill-rule="evenodd" clip-rule="evenodd" d="M116.06 28.671C118.548 33.3703 122.158 37.3362 126.853 39.8952C127.729 40.3725 128.472 39.0953 127.633 38.5633C123.344 35.8404 119.63 32.4835 116.842 28.2141C116.524 27.727 115.786 28.1536 116.06 28.671Z" fill="#391c03" fill-opacity="0.6"></path>
                        <path fill-rule="evenodd" clip-rule="evenodd" d="M127.81 30.2069C125.318 28.4383 123.08 26.4131 120.918 24.1747C120.401 23.6405 119.688 24.448 120.148 25.032C122.137 27.5547 124.676 29.5613 127.418 30.9534C127.866 31.1818 128.24 30.512 127.81 30.2069Z" fill="#391c03" fill-opacity="0.6"></path>
                        <path fill-rule="evenodd" clip-rule="evenodd" d="M132.965 27.4923C131.452 24.149 129.011 20.9418 125.852 19.0708C125.328 18.7607 124.678 19.5453 125.182 19.9536C128.042 22.2682 130.494 24.611 132.392 27.8326C132.616 28.2121 133.14 27.8803 132.965 27.4923Z" fill="#391c03" fill-opacity="0.6"></path>
                        <path fill-rule="evenodd" clip-rule="evenodd" d="M187.315 7.82858C197.703 9.74092 207.506 13.3039 216.957 17.9207C217.747 18.3074 218.439 17.1768 217.655 16.7446C208.346 11.6077 198.082 8.51398 187.546 7.0052C187.006 6.92839 186.758 7.72639 187.315 7.82858Z" fill="#391c03" fill-opacity="0.6"></path>
                        <path fill-rule="evenodd" clip-rule="evenodd" d="M257.654 37.9909C268.459 36.1568 278.902 32.7865 288.52 27.7225C289.617 27.145 288.638 25.5488 287.539 26.1225C278.022 31.0891 267.989 34.824 257.376 37.0308C256.714 37.1688 257.001 38.1014 257.654 37.9909Z" fill="#391c03" fill-opacity="0.6"></path>
                        <path fill-rule="evenodd" clip-rule="evenodd" d="M297.249 19.9987C303.623 19.4052 309.961 17.9972 316.255 16.9003C322.963 15.7307 329.68 14.6079 336.402 13.5037C337.448 13.332 337.007 11.8363 335.962 12.0148C329.465 13.1251 322.977 14.2874 316.498 15.4892C310.067 16.683 303.438 17.6742 297.18 19.525C296.916 19.6028 296.945 20.0265 297.249 19.9987Z" fill="#391c03" fill-opacity="0.6"></path>
                        <path fill-rule="evenodd" clip-rule="evenodd" d="M218.937 74.321C213.573 65.4393 202.871 62.3968 193.94 60.0266C192.996 59.7771 192.594 61.3584 193.539 61.6094C202.86 64.0824 211.68 66.8531 218.287 74.8653C218.599 75.2436 219.195 74.7488 218.937 74.321Z" fill="#391c03" fill-opacity="0.6"></path>
                        <path fill-rule="evenodd" clip-rule="evenodd" d="M204.095 128.602C209.027 134.035 213.943 139.478 218.988 144.817C219.507 145.366 220.352 144.559 219.842 144.011C214.845 138.643 209.725 133.384 204.615 128.112C204.293 127.778 203.789 128.267 204.095 128.602Z" fill="#391c03" fill-opacity="0.6"></path>
                        <path fill-rule="evenodd" clip-rule="evenodd" d="M223.111 101.787C230.347 110.734 238.253 119.172 245.888 127.788C246.45 128.42 247.387 127.499 246.829 126.869C239.2 118.261 231.791 109.414 223.767 101.146C223.346 100.712 222.751 101.342 223.111 101.787Z" fill="#391c03" fill-opacity="0.6"></path>
                        <path fill-rule="evenodd" clip-rule="evenodd" d="M195.14 159.023C197.749 162.301 200.317 165.621 203.03 168.798C203.546 169.402 204.328 168.518 203.853 167.904C201.288 164.587 198.576 161.407 195.907 158.19C195.437 157.623 194.687 158.454 195.14 159.023Z" fill="#391c03" fill-opacity="0.6"></path>
                        <path fill-rule="evenodd" clip-rule="evenodd" d="M0.568443 16.6481C7.29715 20.0078 14.884 21.6301 22.1742 23.3139C29.6394 25.0368 37.1808 26.2891 44.7839 27.2126C44.264 26.9137 43.7449 26.6148 43.225 26.3152C45.8002 29.6657 45.9036 34.6875 46.0077 38.7213C46.1879 45.7134 45.4508 52.7433 44.4293 59.6498C41.9661 76.3057 37.8138 92.8318 32.2399 108.711C29.5171 116.465 26.4286 124.158 22.3004 131.278C23.2237 130.902 24.1475 130.525 25.0708 130.148C17.9296 127.477 9.76495 127.506 2.23013 127.376C-0.300784 127.331 -0.911716 131.287 1.6244 131.862C8.97445 133.53 16.5613 132.283 23.7663 134.893C24.7656 135.255 26.0317 134.655 26.5366 133.762C36.7286 115.753 42.1782 94.4776 46.1281 74.3074C48.048 64.5026 49.579 54.5158 49.9017 44.5145C50.0975 38.4629 50.3304 30.8639 47.0454 25.4753C45.4735 22.8962 42.7026 23.4026 39.9238 23.0802C35.3909 22.5536 30.8749 21.8729 26.3805 21.0852C17.8242 19.5862 9.38629 16.8433 0.742159 16.0014C0.402535 15.9694 0.27046 16.4993 0.568443 16.6481Z" fill="#391c03" fill-opacity="0.6"></path>
                        <path fill-rule="evenodd" clip-rule="evenodd" d="M127.766 18.0357C123.123 19.9515 118.421 22.6757 115.785 27.1201C113.705 30.6291 113.094 34.7622 111.59 38.5113C110.527 41.1629 109.079 43.6484 107.38 45.9416C105.406 48.6036 102.845 50.7058 100.795 53.2658C98.221 56.4806 95.9704 60.0714 93.771 63.5445C91.7757 66.6958 88.756 70.4835 90.5451 74.3255C93.424 80.5091 100.875 82.4354 107.133 81.9206C123.475 80.5765 133.729 67.1465 143.782 55.8873C145.211 54.2881 146.674 52.3272 148.634 51.5849C150.635 50.8288 152.959 50.5285 155.032 50.0288C158.943 49.0863 162.823 47.9528 166.728 47.028C168.956 46.5001 168.013 43.0702 165.782 43.598C160.702 44.8015 152.642 45.7218 146.862 47.8057C142.837 49.2577 139.536 54.3699 136.845 57.4695C131.897 63.171 126.761 68.8673 120.263 72.8428C114.335 76.4702 106.058 79.5032 99.1584 76.8215C97.1029 76.0229 93.8096 73.7114 94.0832 71.3404C94.277 69.6594 95.9842 67.5147 96.8254 66.1059C98.8664 62.6818 101.002 59.2211 103.368 56.0083C106.35 51.9583 109.953 48.5958 112.321 44.0533C114.441 39.9863 115.237 35.6439 116.615 31.327C118.484 25.4698 123.15 22.1203 128.129 18.8951C128.55 18.623 128.284 17.8225 127.766 18.0357Z" fill="#391c03" fill-opacity="0.6"></path>
                        <path fill-rule="evenodd" clip-rule="evenodd" d="M121.561 21.7992C123.213 20.8254 125.479 20.414 127.316 19.815C130.341 18.828 133.351 17.8046 136.374 16.8118C143.934 14.3269 151.519 11.913 159.173 9.72864C162.639 8.73976 166.117 7.79847 169.613 6.92106C173.768 5.87807 178.132 3.99613 182.398 3.69562C193.42 2.9199 205.423 7.64789 214.926 12.7474C225.716 18.5373 235.343 26.2991 246.3 31.7774C248.384 32.8184 250.102 29.9404 248.132 28.6816C238.454 22.4954 228.762 16.0322 218.72 10.4359C209.072 5.05998 198.342 1.00994 187.234 0.0836337C181.587 -0.387665 177.209 1.22766 171.847 2.55746C168.562 3.37295 165.292 4.20603 162.038 5.14277C153.876 7.49274 145.713 10.0018 137.752 12.9547C132.041 15.072 125.654 17.0419 121.111 21.223C120.801 21.5085 121.2 22.0118 121.561 21.7992Z" fill="#391c03" fill-opacity="0.6"></path>
                        <path fill-rule="evenodd" clip-rule="evenodd" d="M165.962 46.4246C173.237 50.2069 180.954 52.8639 188.765 55.3209C195.688 57.4995 202.962 59.3182 209.514 62.4905C216.526 65.8858 222.048 73.0278 227.337 78.5122C242.413 94.1458 257.272 110.102 271.672 126.351C274.645 129.706 278.446 133.352 278.767 137.998C279.064 142.302 276.796 146.792 273.591 149.638C269.405 153.353 264.624 152.073 259.937 150.061C257.809 149.147 256.223 151.773 258.117 153.15C264.518 157.807 272.952 156.615 277.89 150.607C282.599 144.878 283.497 135.737 279.353 129.409C277.749 126.958 275.616 124.771 273.697 122.568C270.405 118.788 267.145 114.979 263.856 111.197C255.262 101.315 246.236 91.7592 237.26 82.2188C230.665 75.2084 224.155 67.7341 216.736 61.5515C211.385 57.0916 203.999 55.2327 197.458 53.2337C187.529 50.1996 177.327 47.513 167.866 43.1925C165.697 42.2036 163.78 45.2902 165.962 46.4246Z" fill="#391c03" fill-opacity="0.6"></path>
                        <path fill-rule="evenodd" clip-rule="evenodd" d="M254.383 147.294C256.324 151.234 257.732 155.606 255.887 159.878C254.593 162.872 252.079 165.574 249.068 166.72C245.53 168.066 241.594 167.164 238.116 166.131C234.341 165.008 232.722 162.254 229.708 159.973C228.509 159.065 226.534 160.593 227.1 162.041C227.879 164.037 229.512 165.476 231.239 166.656C233.278 168.052 235.624 169.492 237.912 170.414C242.632 172.314 247.896 172.788 252.516 170.264C261.503 165.355 264.65 152.601 255.5 146.142C254.779 145.634 254.041 146.6 254.383 147.294Z" fill="#391c03" fill-opacity="0.6"></path>
                        <path fill-rule="evenodd" clip-rule="evenodd" d="M230.033 162.252C232.019 165.531 233.223 168.933 231.819 172.684C230.674 175.74 228.366 178.479 225.69 180.334C223.79 181.65 221.377 182.57 219.051 182.677C214.944 182.868 212.984 180.368 209.708 178.298C207.825 177.108 206.168 179.675 207.457 181.203C209.344 183.439 211.747 184.192 214.224 185.496C216.017 186.44 217.667 186.902 219.756 186.99C223.484 187.146 226.962 185.45 229.803 183.156C236.531 177.719 241.265 165.862 231.201 161.088C230.47 160.742 229.561 161.473 230.033 162.252Z" fill="#391c03" fill-opacity="0.6"></path>
                        <path fill-rule="evenodd" clip-rule="evenodd" d="M203.662 178.506C202.954 182.173 200.801 184.831 197.364 186.531C195.71 187.35 193.731 188.048 191.866 188.149C189.668 188.269 188.143 187.319 186.133 186.58C184.07 185.823 183.29 188.659 184.754 189.732C186.828 191.252 189.816 191.759 192.352 191.964C194.944 192.174 197.388 191.446 199.674 190.339C204.469 188.018 207.346 184.191 207.985 179.07C208.279 176.712 204.115 176.162 203.662 178.506Z" fill="#391c03" fill-opacity="0.6"></path>
                        <path fill-rule="evenodd" clip-rule="evenodd" d="M24.8349 130.232C32.8395 131.381 40.9122 132.134 48.9489 133.041C54.2016 133.634 59.9895 134.583 64.4315 137.498C68.0183 139.853 71.7936 141.862 75.633 143.814C79.3572 145.708 85.0012 149.624 89.4517 148.915C91.9871 148.512 91.1313 144.983 88.8805 144.806C89.2024 144.832 87.4221 144.208 86.9726 144.025C85.5207 143.434 84.0891 142.781 82.6549 142.149C79.3206 140.677 76.0275 139.108 72.7731 137.476C70.7094 136.44 68.7367 135.344 66.785 134.136C62.6871 131.598 57.3939 130.424 52.6326 129.86C43.5791 128.786 34.2567 128.361 25.145 128.001C23.8606 127.949 23.5197 130.042 24.8349 130.232Z" fill="#391c03" fill-opacity="0.6"></path>
                        <path fill-rule="evenodd" clip-rule="evenodd" d="M72.0359 149.935C76.5173 165.592 97.2294 176.223 112.348 168.328C126.067 161.164 137.554 150.223 148.369 139.413C149.038 138.743 149.214 137.622 148.709 136.805C146.444 133.139 144.059 129.88 140.602 127.236C135.624 123.429 128.719 123.401 122.855 125.002C116.025 126.868 109.997 130.834 104.517 135.148C101.925 137.188 99.4138 139.343 96.6064 141.096C93.5646 142.997 90.4398 143.816 86.9949 144.683C84.5905 145.289 85.1641 148.799 87.5691 148.869C93.1155 149.031 98.2094 145.957 102.468 142.753C107.506 138.963 112.188 134.87 117.87 131.995C123.224 129.285 131.39 126.798 137.025 130.149C140.526 132.231 142.822 135.641 144.942 138.977C145.055 138.108 145.169 137.239 145.283 136.369C135.864 146.026 125.656 155.39 113.96 162.29C111.295 163.862 108.711 165.551 105.592 166.044C101.831 166.639 97.589 166.722 93.9301 165.627C85.9293 163.231 77.4176 156.726 73.8034 149.2C73.3279 148.211 71.7428 148.913 72.0359 149.935Z" fill="#391c03" fill-opacity="0.6"></path>
                        <path fill-rule="evenodd" clip-rule="evenodd" d="M105.638 171.949C113.566 179.395 123.09 184.017 134.011 181.131C138.762 179.876 142.937 177.216 147.073 174.65C151.666 171.801 155.899 168.705 160.029 165.209C167.184 159.155 174.847 153.505 181.319 146.685C185.255 142.537 184.75 134.315 180.508 130.674C175.982 126.788 170.993 125.399 165.047 126.233C158.833 127.105 151.526 130.306 146.961 134.682C145.069 136.496 147.465 139.046 149.576 138.091C154.347 135.933 158.314 132.679 163.52 131.388C168.461 130.164 173.152 130.674 177.067 134.016C179.668 136.234 179.397 139.302 178.477 142.333C178.378 142.661 178.146 143.073 178.117 143.411C178.042 144.289 178.28 142.94 178.475 142.863C177.819 143.126 177.005 144.413 176.52 144.914C171.064 150.545 164.931 155.343 158.971 160.408C152.254 166.114 144.993 171.633 136.938 175.317C132.617 177.294 127.307 178.365 122.638 177.196C117.384 175.879 112.535 172.595 108.487 169.084C106.544 167.398 103.724 170.15 105.638 171.949Z" fill="#391c03" fill-opacity="0.6"></path>
                        <path fill-rule="evenodd" clip-rule="evenodd" d="M133.635 178.944C139.618 184.572 147.354 189.514 155.894 188.957C164.284 188.409 171.158 184.096 178.065 179.679C183.443 176.238 188.178 171.388 192.414 166.646C194.814 163.958 195.396 158.345 194.761 154.947C194.202 151.953 191.396 150 189.013 148.365C185.016 145.621 179.486 145.725 174.895 146.404C171.879 146.85 173.161 151.422 176.159 150.978C181.13 150.244 185.305 151.074 189.012 154.405C190.943 156.138 190.166 159.108 189.768 161.47C189.718 161.762 189.168 164.472 189.587 163.251C189.934 162.24 189.048 163.72 188.682 164.126C186.57 166.478 184.39 168.785 182.084 170.948C179.188 173.664 176.102 175.777 172.722 177.837C169.176 179.997 165.631 182.302 161.616 183.497C152.04 186.347 143.724 182.297 136.474 176.11C134.534 174.453 131.731 177.153 133.635 178.944Z" fill="#391c03" fill-opacity="0.6"></path>
                        <path fill-rule="evenodd" clip-rule="evenodd" d="M194.752 190.967C191.974 189.277 188.878 188.153 186.201 186.274C183.403 184.31 181.259 181.647 178.608 179.528C176.791 178.074 174.117 179.855 175.286 182.044C178.638 188.324 187.284 192.739 194.495 191.897C194.975 191.841 195.213 191.248 194.752 190.967Z" fill="#391c03" fill-opacity="0.6"></path>
                        <path fill-rule="evenodd" clip-rule="evenodd" d="M199.136 129.288C200.625 131.785 202.558 133.989 204.339 136.269C208.131 141.118 211.89 145.997 215.736 150.8C219.507 155.512 223.28 160.224 227.053 164.936C228.298 166.491 231.511 172.074 234.098 170.664C233.415 170.574 232.733 170.483 232.05 170.392C232.059 170.403 232.067 170.414 232.077 170.425C233.489 172.131 235.87 169.661 234.466 167.965C234.457 167.955 234.448 167.944 234.44 167.934C234.528 168.636 234.616 169.338 234.704 170.04C236.238 167.871 231.363 163.58 230.261 162.292C226.321 157.686 222.381 153.081 218.44 148.475C214.444 143.805 210.364 139.21 206.316 134.588C204.422 132.425 202.624 130.123 200.478 128.222C199.776 127.6 198.6 128.39 199.136 129.288Z" fill="#391c03" fill-opacity="0.6"></path>
                        <path fill-rule="evenodd" clip-rule="evenodd" d="M192.056 164.998C193.123 167.658 196.126 170.162 198.018 172.322C200.359 174.994 202.927 178.853 206.072 180.72C207.797 181.744 209.672 179.748 208.763 178.158C207.049 175.161 203.208 172.54 200.64 170.23C198.522 168.325 196.006 165.23 193.317 164.074C192.717 163.816 191.759 164.259 192.056 164.998Z" fill="#391c03" fill-opacity="0.6"></path>
                        <path fill-rule="evenodd" clip-rule="evenodd" d="M215.146 100.297C219.471 106.838 224.992 112.748 229.931 118.829C237.775 128.488 245.728 138.055 253.658 147.644C254.929 149.18 256.18 150.73 257.554 152.177C258 152.646 258.43 153.168 259 153.488C259.103 153.546 259.227 153.575 259.326 153.642C259.464 153.734 259.65 153.765 259.798 153.843C261.048 154.496 258.615 152.867 259.086 153.422C260.536 155.131 262.987 152.66 261.546 150.961C261.539 150.953 261.531 150.945 261.524 150.937C261.673 151.501 261.822 152.065 261.972 152.629C262.319 150.189 259.34 147.665 257.907 146.019C254.321 141.9 250.737 137.782 247.152 133.663C238.995 124.293 230.765 114.99 222.525 105.693C220.572 103.49 218.688 101.234 216.528 99.2305C215.825 98.5783 214.572 99.4296 215.146 100.297Z" fill="#391c03" fill-opacity="0.6"></path>
                        <path fill-rule="evenodd" clip-rule="evenodd" d="M47.7212 29.2487C59.9821 30.7802 72.2784 31.9925 84.5216 33.6553C89.3411 34.3098 93.8133 34.1415 98.3137 32.1908C103.004 30.1588 107.09 26.945 111.399 24.2533C120.552 18.537 130.26 13.6332 140.326 9.6979C143.252 8.55385 146.211 7.48716 149.196 6.50107C152.01 5.57153 155.166 4.21493 158.155 4.20713C162.588 4.19413 166.909 9.05437 171.281 6.76238C172.299 6.22871 172.178 4.7993 171.281 4.23638C169.649 3.21389 167.672 2.91097 165.892 2.1823C163.946 1.38536 162.05 0.459725 159.948 0.137962C155.23 -0.584217 150.196 1.69088 145.833 3.20284C136.008 6.60507 126.476 10.8549 117.411 15.9193C112.808 18.4915 108.36 21.3009 103.985 24.2357C99.3209 27.3643 94.6459 30.2459 88.8047 30.1217C82.4034 29.9859 75.7545 28.6 69.3815 27.9123C62.1647 27.1329 54.94 26.4341 47.7212 25.6736C45.3955 25.4285 45.4572 28.966 47.7212 29.2487Z" fill="#391c03" fill-opacity="0.6"></path>
                        <path fill-rule="evenodd" clip-rule="evenodd" d="M247.071 33.9377C253.917 34.3203 260.274 32.9097 266.675 30.5739C270.111 29.3197 273.521 27.992 276.94 26.6968C280.272 25.4347 284.132 24.5155 287.077 22.5139C288.945 21.2452 287.739 18.7018 285.592 19.0288C282.26 19.5368 278.935 21.3957 275.815 22.6572C272.606 23.9551 269.406 25.2788 266.184 26.5475C260.031 28.9702 253.687 31.0501 247.071 31.7405C245.668 31.887 245.618 33.8567 247.071 33.9377Z" fill="#391c03" fill-opacity="0.6"></path>
                        <path fill-rule="evenodd" clip-rule="evenodd" d="M276.4 129.969C280.42 129.043 284.285 127.85 288.182 126.492C291.496 125.337 295.675 124.55 298.424 122.317C299.712 121.272 298.658 118.894 297.058 119.004C293.414 119.255 289.44 121.631 286.048 122.972C282.419 124.406 278.923 125.962 275.543 127.925C274.429 128.573 275.186 130.248 276.4 129.969Z" fill="#391c03" fill-opacity="0.6"></path>
                        <path fill-rule="evenodd" clip-rule="evenodd" d="M285.116 17.9015C287.899 24.4051 289.271 31.5759 290.392 38.5219C291.896 47.8378 292.937 57.2265 293.675 66.6322C295.336 87.8117 295.853 109.091 295.448 130.329C295.38 133.887 300.956 133.894 300.981 130.329C301.132 108.415 300.419 86.4215 298.121 64.6188C297.135 55.2636 295.946 45.8939 293.908 36.7025C292.391 29.8568 290.618 22.8537 287.275 16.6405C286.493 15.1875 284.501 16.4662 285.116 17.9015Z" fill="#391c03" fill-opacity="0.6"></path>
                        <path fill-rule="evenodd" clip-rule="evenodd" d="M284.179 18.9644C300.558 14.9867 316.664 9.87182 333.26 6.80639C336.296 6.24623 335.033 1.41414 331.977 2.05913C323.724 3.79955 315.674 6.28528 307.629 8.81545C299.603 11.3396 291.418 13.7445 283.663 17.0577C282.544 17.5357 282.925 19.2687 284.179 18.9644Z" fill="#391c03" fill-opacity="0.6"></path>
                        <path fill-rule="evenodd" clip-rule="evenodd" d="M296.613 132.268C301.087 134.844 307.961 133.795 312.878 133.755C316.536 133.727 320.194 133.69 323.853 133.629C326.784 133.581 330.827 134.145 333.608 133.077C336.486 131.97 337.094 127.083 333.608 126.265C330.615 125.563 326.89 126.451 323.853 126.677C320.196 126.95 316.537 127.199 312.878 127.44C309.556 127.659 306.209 127.859 302.901 128.241C300.697 128.497 298.519 128.722 296.613 129.975C295.835 130.487 295.758 131.774 296.613 132.268Z" fill="#391c03" fill-opacity="0.6"></path>
                        <path fill-rule="evenodd" clip-rule="evenodd" d="M56.7091 133.06C56.6019 136.936 55.1665 140.618 56.7124 144.408C57.9036 147.327 60.4303 150.077 63.3282 151.572C70.5634 155.305 79.8627 151.009 85.8762 146.836C88.3916 145.09 86.2885 141.754 83.4548 142.914C77.8767 145.197 71.6262 150.435 65.3453 147.277C62.9358 146.065 60.6493 144.074 59.7864 141.564C58.846 138.831 59.4409 135.621 58.9433 132.774C58.7275 131.54 56.7415 131.89 56.7091 133.06Z" fill="#391c03" fill-opacity="0.6"></path>
                    </svg>