<?xml version="1.0" encoding="utf-8"?>
<!-- Generator: Adobe Illustrator 16.0.0, SVG Export Plug-In . SVG Version: 6.00 Build 0)  -->
<!DOCTYPE svg PUBLIC "-//W3C//DTD SVG 1.1//EN" "http://www.w3.org/Graphics/SVG/1.1/DTD/svg11.dtd">
<svg version="1.1" id="Layer_1" xmlns="http://www.w3.org/2000/svg" xmlns:xlink="http://www.w3.org/1999/xlink" x="0px" y="0px"
	 width="70px" height="70px" viewBox="0 0 70 70" enable-background="new 0 0 70 70" xml:space="preserve">
<path fill="#231F20" d="M68.252,6.918c-0.492,2.656-2.27,5.846-5.725,5.846c-3.256,0-7.4-2.569-12.432-5.049
	c-5.033-2.569-11.051-5.05-18.257-5.05c-18.154,0-31.868,15.059-31.868,30.829c0,19.135,12.529,33.842,36.506,33.842
	c16.48,0,32.762-8.861,32.762-26.934c0-10.808-11.348-15.944-23.285-15.944c-14.998,0-22.995,11.251-29.8,11.251
	c-2.961,0-5.231-2.926-5.231-5.76c0-5.049,5.33-7.886,10.458-7.886c3.16,0,6.118,0.709,8.982,1.862l0.493-1.417
	c-2.862-1.239-5.922-2.038-9.87-2.038c-6.415,0-11.838,4.34-11.838,10.275c0,9.213,7.891,15.594,17.859,15.594
	c18.945,0,24.566-13.91,33.055-13.91c4.637,0,7.498,3.188,7.398,7.265C67.264,47.137,57.592,51.92,32.53,51.92
	c-12.827,0-30.786-3.721-30.786-18.337c0-10.188,7.501-18.692,19.341-18.692c10.952,0,19.338,7.441,29.108,7.441
	c11.35,0,17.07-5.757,19.836-15.149L68.252,6.918z"/>
</svg>
