<svg xmlns:dc="http://purl.org/dc/elements/1.1/" xmlns:cc="http://creativecommons.org/ns#" xmlns:rdf="http://www.w3.org/1999/02/22-rdf-syntax-ns#" xmlns:svg="http://www.w3.org/2000/svg" xmlns="http://www.w3.org/2000/svg" xmlns:sodipodi="http://sodipodi.sourceforge.net/DTD/sodipodi-0.dtd" xmlns:inkscape="http://www.inkscape.org/namespaces/inkscape" version="1.1" x="0px" y="0px" viewBox="0 0 100 125"><g transform="translate(0,-952.36218)"><path style="font-size:medium;font-style:normal;font-variant:normal;font-weight:normal;font-stretch:normal;text-indent:0;text-align:start;text-decoration:none;line-height:normal;letter-spacing:normal;word-spacing:normal;text-transform:none;direction:ltr;block-progression:tb;writing-mode:lr-tb;text-anchor:start;baseline-shift:baseline;opacity:1;color:#000000;fill:#000000;fill-opacity:1;stroke:none;stroke-width:4;marker:none;visibility:visible;display:inline;overflow:visible;enable-background:accumulate;font-family:Sans;-inkscape-font-specification:Sans" d="M 23 17 C 19.710594 17 17 19.71059 17 23 L 17 39 A 2.0002 2.0002 0 1 0 21 39 L 21 23.8125 L 42.59375 45.40625 A 2.0002 2.0002 0 1 0 45.40625 42.5625 L 23.84375 21 L 39 21 A 2.0002 2.0002 0 1 0 39 17 L 23 17 z M 60.8125 17 A 2.0021961 2.0021961 0 1 0 61 21 L 76.15625 21 L 54.59375 42.5625 A 2.0002 2.0002 0 1 0 57.40625 45.40625 L 79 23.8125 L 79 39 A 2.0002 2.0002 0 1 0 83 39 L 83 23 C 83 19.71059 80.289405 17 77 17 L 61 17 A 2.0002 2.0002 0 0 0 60.8125 17 z M 43.75 53.96875 A 2.0002 2.0002 0 0 0 42.59375 54.5625 L 21 76.15625 L 21 61 A 2.0002 2.0002 0 0 0 18.78125 58.96875 A 2.0002 2.0002 0 0 0 17 61 L 17 77 C 17 80.2894 19.710595 83 23 83 L 39 83 A 2.0002 2.0002 0 1 0 39 79 L 23.8125 79 L 45.40625 57.40625 A 2.0002 2.0002 0 0 0 43.75 53.96875 z M 55.78125 53.96875 A 2.0002 2.0002 0 0 0 54.59375 57.40625 L 76.1875 79 L 61 79 A 2.0002 2.0002 0 1 0 61 83 L 77 83 C 80.289405 83 83 80.2894 83 77 L 83 61 A 2.0002 2.0002 0 0 0 80.78125 58.96875 A 2.0002 2.0002 0 0 0 79 61 L 79 76.15625 L 57.40625 54.5625 A 2.0002 2.0002 0 0 0 55.78125 53.96875 z " transform="translate(0,952.36218)"/></g></svg>