<?xml version="1.0" encoding="utf-8"?>
<!-- Generator: Adobe Illustrator 15.1.0, SVG Export Plug-In . SVG Version: 6.00 Build 0)  -->
<!DOCTYPE svg PUBLIC "-//W3C//DTD SVG 1.1//EN" "http://www.w3.org/Graphics/SVG/1.1/DTD/svg11.dtd">
<svg version="1.1" id="Layer_1" xmlns="http://www.w3.org/2000/svg" xmlns:xlink="http://www.w3.org/1999/xlink" x="0px" y="0px"
	 width="955.279px" height="85.04px" viewBox="0 0 955.279 85.04" enable-background="new 0 0 955.279 85.04" xml:space="preserve">
<path d="M284.432,22.556c-0.202-4.579-0.404-9.225-0.606-13.938c1.751,0.134,3.434,0.269,5.252,0.404
	c1.751,0.135,3.501,0.135,5.252,0.135c0.875,0,1.886-0.067,3.098-0.135s2.491-0.135,3.703-0.135
	c1.279-0.067,2.491-0.067,3.636-0.135c1.145-0.067,2.087-0.134,2.896-0.134c1.077,0,2.424,0.067,3.973,0.134
	c1.548,0.067,3.231,0.27,4.982,0.673c1.75,0.337,3.501,0.875,5.252,1.616c1.75,0.741,3.299,1.75,4.713,3.097
	s2.559,3.097,3.366,5.117c0.809,2.02,1.279,4.511,1.279,7.541c0,4.713-1.01,8.619-3.097,11.514
	c-2.021,2.962-4.579,5.251-7.541,6.868c-2.963,1.683-6.128,2.76-9.494,3.366s-6.329,0.875-8.888,0.875c-1.684,0-3.165,0-4.512-0.067
	s-2.76-0.135-4.174-0.27v5.926c0,4.713,0.067,9.426,0.269,14.005c0.202,4.579,0.404,9.157,0.606,13.601
	c-1.684-0.135-3.434-0.201-5.252-0.201c-1.886,0-3.636,0.066-5.252,0.201c0.202-4.443,0.404-8.955,0.606-13.601
	c0.201-4.579,0.269-9.292,0.269-14.005V36.494C284.7,31.781,284.567,27.067,284.432,22.556z M301.13,45.449
	c2.222,0,4.511-0.269,6.867-0.74c2.357-0.472,4.512-1.414,6.531-2.761c1.953-1.347,3.569-3.165,4.849-5.521
	c1.279-2.356,1.885-5.319,1.885-9.022c0-3.097-0.404-5.588-1.279-7.541s-2.087-3.434-3.636-4.511
	c-1.549-1.077-3.434-1.818-5.656-2.222c-2.222-0.404-4.713-0.606-7.541-0.606h-9.628v31.982
	C295.946,45.18,298.504,45.449,301.13,45.449z"/>
<path d="M358.766,39.052c-1.01-0.336-2.087-0.539-3.165-0.539c-1.75,0-3.299,0.404-4.646,1.212
	c-1.347,0.808-2.491,1.818-3.434,3.165c-0.943,1.347-1.684,2.896-2.155,4.714c-0.471,1.817-0.74,3.77-0.74,5.857v11.851
	c0,4.78,0,8.483,0.067,11.042s0.135,4.646,0.404,6.195c-1.414-0.135-2.896-0.203-4.31-0.203c-1.549,0-3.098,0.068-4.512,0.203
	c0.202-2.424,0.337-5.791,0.404-9.966c-0.067-4.106-0.067-9.292-0.067-15.419v-3.434c0-2.828,0-6.061-0.067-9.695
	c-0.067-3.637-0.135-7.878-0.403-12.592c0.808,0.135,1.548,0.27,2.289,0.404c0.74,0.134,1.481,0.134,2.289,0.134
	c0.673,0,1.347-0.067,2.02-0.134c0.741-0.135,1.481-0.202,2.29-0.404c-0.27,2.559-0.472,4.646-0.472,6.127
	c-0.067,1.481-0.067,2.962-0.067,4.309l0.202,0.135c4.242-7.743,8.955-11.648,14.207-11.648c0.673,0,1.212,0.067,1.684,0.135
	c0.471,0.067,1.077,0.269,1.75,0.539c-0.337,0.875-0.605,2.155-0.673,3.905s-0.135,3.367-0.135,4.78l-0.741,0.539
	C360.517,39.86,359.776,39.457,358.766,39.052z"/>
<path d="M367.923,37.908c4.175-5.05,10.302-7.541,18.382-7.541c3.838,0,7.069,0.606,9.83,1.75c2.761,1.212,5.05,2.761,6.935,4.713
	c1.886,1.953,3.232,4.309,4.175,6.936c0.875,2.625,1.347,5.521,1.347,8.483c0,0.741,0,1.414-0.067,2.087
	c-0.067,0.674-0.067,1.414-0.135,2.088c-3.905-0.067-7.743-0.135-11.514-0.202c-3.838-0.067-7.676-0.135-11.514-0.135
	c-2.356,0-4.713,0.067-7.069,0.135s-4.714,0.135-7.07,0.202c-0.067,0.336-0.135,0.875-0.135,1.615v1.414
	c0,2.828,0.404,5.454,1.212,7.878c0.809,2.425,2.021,4.511,3.637,6.329c1.548,1.751,3.501,3.165,5.79,4.175
	c2.289,1.011,4.982,1.549,7.945,1.549c1.414,0,2.896-0.202,4.444-0.606c1.48-0.404,2.962-0.942,4.443-1.615
	c1.414-0.674,2.761-1.481,4.04-2.424c1.279-0.943,2.356-1.953,3.299-3.03l0.539,0.337l-0.674,5.252
	c-2.154,1.75-4.848,3.164-8.013,4.443c-3.164,1.212-6.53,1.818-9.965,1.818c-3.904,0-7.406-0.606-10.638-1.751
	c-3.165-1.212-5.993-2.896-8.282-5.185c-2.356-2.289-4.107-4.915-5.387-8.013c-1.279-3.097-1.885-6.396-1.885-10.032
	C361.594,49.826,363.681,42.89,367.923,37.908z M379.774,35.619c-1.818,1.212-3.367,2.76-4.512,4.579
	c-1.212,1.818-2.087,3.838-2.693,6.059c-0.605,2.223-1.01,4.242-1.145,6.195c2.222,0.066,4.512,0.135,6.936,0.201
	c2.424,0.068,4.78,0.135,7.069,0.135c2.356,0,4.781-0.066,7.205-0.135c2.424-0.066,4.78-0.134,7.137-0.201
	c0-1.953-0.135-3.973-0.472-6.127c-0.336-2.155-0.942-4.175-1.952-6.061c-0.942-1.885-2.289-3.434-4.04-4.646
	c-1.75-1.212-3.973-1.818-6.801-1.818C383.814,33.801,381.591,34.407,379.774,35.619z"/>
<path d="M423.673,16.968c-0.201,2.76-0.403,5.386-0.471,8.012c-0.135,2.626-0.202,5.252-0.404,7.945c0.808,0,2.289,0,4.444-0.067
	c2.154-0.067,4.511-0.135,7.002-0.27c-0.067,0.202-0.135,0.606-0.135,1.212v1.078v1.212c0,0.471,0.067,0.875,0.135,1.077
	c-0.942-0.067-1.885-0.134-2.896-0.134c-1.01-0.067-2.087-0.067-3.231-0.067h-5.319c-0.067,0.269-0.135,1.414-0.27,3.434
	s-0.202,4.377-0.269,7.137c-0.067,2.762-0.135,5.656-0.135,8.687c-0.067,3.03-0.067,5.724-0.067,8.079
	c0,2.021,0.067,3.973,0.135,5.926c0.066,1.953,0.471,3.703,1.01,5.252c0.605,1.549,1.414,2.761,2.559,3.703
	c1.145,0.943,2.828,1.414,4.982,1.414c0.605,0,1.347-0.067,2.289-0.202s1.818-0.337,2.559-0.538v2.559
	c-1.212,0.201-2.559,0.471-4.04,0.808s-2.895,0.472-4.241,0.472c-4.512,0-7.878-1.145-10.033-3.367
	c-2.154-2.222-3.231-5.521-3.231-9.83c0-1.953,0.067-4.04,0.135-6.33c0.067-2.289,0.135-4.713,0.27-7.406
	c0.134-2.693,0.201-5.655,0.269-8.955c0.067-3.299,0.135-6.935,0.135-10.907h-3.434c-0.606,0-1.212,0-1.818,0.067
	c-0.673,0.067-1.347,0.067-2.02,0.134c0.067-0.404,0.135-0.875,0.135-1.212c0.067-0.404,0.067-0.808,0.067-1.212
	c0-0.336,0-0.741-0.067-1.077c-0.067-0.337-0.067-0.741-0.135-1.078c3.231,0.202,5.589,0.337,7.137,0.337
	c-0.067-1.414-0.135-3.232-0.135-5.387c-0.067-2.154-0.134-4.376-0.269-6.666l8.955-3.771h0.403V16.968z"/>
<path d="M471.614,31.646c2.761-0.875,5.521-1.279,8.417-1.279c2.559,0,4.982,0.404,7.137,1.145s3.973,1.818,5.521,3.232
	s2.761,3.097,3.636,5.05s1.279,4.174,1.279,6.532c0,4.107-0.067,8.146-0.202,12.254c-0.135,4.04-0.202,8.35-0.202,12.86
	c0,0.876,0,1.751,0.067,2.761c0.067,0.942,0.202,1.818,0.472,2.559s0.673,1.414,1.212,1.885c0.539,0.472,1.347,0.741,2.424,0.741
	c0.337,0,0.741,0,1.145-0.067c0.404-0.067,0.741-0.135,1.145-0.404v2.357c-0.808,0.336-1.75,0.673-2.962,0.875
	c-1.212,0.201-2.491,0.336-3.905,0.336c-2.356,0-4.107-0.605-5.387-1.75c-1.212-1.212-1.953-2.693-2.155-4.578
	c-2.559,2.559-5.117,4.511-7.608,5.723s-5.588,1.818-9.224,1.818c-1.818,0-3.569-0.27-5.252-0.741
	c-1.751-0.472-3.232-1.347-4.579-2.491s-2.424-2.559-3.231-4.174c-0.809-1.617-1.212-3.435-1.212-5.521
	c0-4.31,1.347-7.676,4.04-10.033c2.693-2.356,6.396-3.973,11.109-4.713c3.838-0.674,6.868-1.212,9.09-1.684
	c2.154-0.471,3.771-0.942,4.848-1.48c1.01-0.472,1.684-1.078,1.886-1.751s0.336-1.549,0.336-2.626c0-1.818-0.201-3.502-0.673-5.185
	c-0.404-1.684-1.145-3.097-2.02-4.31c-0.943-1.212-2.155-2.222-3.637-2.962s-3.366-1.145-5.521-1.145
	c-2.896,0-5.521,0.673-8.013,1.953s-4.31,3.097-5.521,5.387h-1.212v-5.589C465.891,34.137,468.92,32.521,471.614,31.646z
	 M485.08,56.829c-1.616,0.269-3.232,0.605-4.848,0.941c-1.616,0.338-3.3,0.741-4.849,1.213c-1.616,0.471-3.029,1.212-4.309,2.02
	c-1.279,0.875-2.223,1.953-3.03,3.232c-0.74,1.279-1.145,2.963-1.145,4.982c0,3.366,0.942,5.925,2.896,7.676
	c1.952,1.75,4.106,2.559,6.464,2.559c2.692,0,5.184-0.74,7.474-2.289c2.222-1.481,3.973-3.3,5.185-5.252l0.403-16.16
	C488.11,56.222,486.696,56.559,485.08,56.829z"/>
<path fill="#ED1C24" d="M493.766,3.501c0.74,0,1.481,0.269,2.356,0.875c0.808,0.606,1.279,1.414,1.279,2.559
	c0,1.279-0.472,2.29-1.279,3.097c-0.875,0.741-1.751,1.414-2.626,2.02l-15.891,10.1h-4.511l15.823-16.025
	C490.601,4.376,492.284,3.501,493.766,3.501z"/>
<path d="M535.578,22.556c-0.201-4.579-0.403-9.225-0.605-13.938c1.751,0.134,3.434,0.269,5.252,0.404
	c1.751,0.135,3.501,0.135,5.252,0.135c0.875,0,1.885-0.067,3.097-0.135s2.491-0.135,3.704-0.135
	c1.279-0.067,2.491-0.067,3.636-0.135c1.145-0.067,2.087-0.134,2.896-0.134c1.077,0,2.424,0.067,3.972,0.134
	c1.549,0.067,3.232,0.27,4.983,0.673c1.75,0.337,3.501,0.875,5.251,1.616c1.751,0.741,3.3,1.75,4.714,3.097s2.559,3.097,3.366,5.117
	c0.809,2.02,1.279,4.579,1.279,7.608c0,4.713-1.01,8.619-3.097,11.514c-2.021,2.963-4.579,5.252-7.542,6.868
	c-2.962,1.684-6.127,2.761-9.493,3.367c-3.367,0.605-6.329,0.875-8.888,0.875c-1.684,0-3.165,0-4.512-0.067
	s-2.761-0.135-4.175-0.269v5.925c0,4.713,0.067,9.427,0.27,14.005s0.404,9.157,0.606,13.602c-1.684-0.135-3.435-0.203-5.252-0.203
	c-1.886,0-3.636,0.068-5.252,0.203c0.202-4.444,0.404-8.955,0.605-13.602c0.202-4.578,0.27-9.292,0.27-14.005V36.494
	C535.848,31.781,535.781,27.067,535.578,22.556z M552.344,45.449c2.223,0,4.512-0.269,6.868-0.74s4.512-1.414,6.531-2.761
	c1.953-1.347,3.568-3.165,4.848-5.521c1.279-2.356,1.886-5.319,1.886-9.022c0-3.097-0.404-5.588-1.279-7.541
	s-2.088-3.434-3.636-4.511c-1.549-1.077-3.435-1.818-5.656-2.222c-2.222-0.404-4.713-0.606-7.541-0.606h-9.696v31.982
	C547.16,45.18,549.719,45.449,552.344,45.449z"/>
<path d="M591.666,31.646c2.761-0.875,5.521-1.279,8.416-1.279c2.559,0,4.983,0.404,7.138,1.145s3.973,1.818,5.521,3.232
	c1.548,1.414,2.761,3.097,3.636,5.05s1.279,4.174,1.279,6.532c0,4.107-0.067,8.146-0.202,12.254c-0.135,4.04-0.202,8.35-0.202,12.86
	c0,0.876,0,1.751,0.067,2.761c0.067,0.942,0.202,1.818,0.472,2.559s0.673,1.414,1.212,1.885c0.538,0.472,1.347,0.741,2.424,0.741
	c0.337,0,0.74,0,1.145-0.067s0.74-0.135,1.145-0.404v2.357c-0.808,0.336-1.751,0.673-2.963,0.875
	c-1.212,0.201-2.491,0.336-3.905,0.336c-2.356,0-4.106-0.605-5.386-1.75c-1.212-1.212-1.953-2.693-2.155-4.578
	c-2.559,2.559-5.117,4.511-7.608,5.723s-5.588,1.818-9.225,1.818c-1.817,0-3.568-0.27-5.251-0.741
	c-1.751-0.472-3.232-1.347-4.579-2.491s-2.424-2.559-3.231-4.174c-0.809-1.617-1.213-3.435-1.213-5.521
	c0-4.31,1.347-7.676,4.04-10.033c2.693-2.356,6.396-3.973,11.11-4.713c3.838-0.674,6.867-1.212,9.09-1.684
	c2.154-0.471,3.771-0.942,4.848-1.48c1.01-0.472,1.684-1.078,1.885-1.751c0.202-0.673,0.337-1.549,0.337-2.626
	c0-1.818-0.202-3.502-0.673-5.185c-0.404-1.684-1.145-3.097-2.021-4.31c-0.942-1.212-2.154-2.222-3.636-2.962
	s-3.366-1.145-5.521-1.145c-2.895,0-5.521,0.673-8.012,1.953s-4.31,3.097-5.521,5.387h-1.212v-5.589
	C585.943,34.137,588.973,32.521,591.666,31.646z M605.133,56.829c-1.616,0.269-3.232,0.605-4.849,0.941
	c-1.615,0.338-3.299,0.741-4.848,1.213c-1.616,0.471-3.03,1.212-4.31,2.02c-1.279,0.875-2.222,1.953-3.029,3.232
	c-0.741,1.279-1.145,2.963-1.145,4.982c0,3.366,0.942,5.925,2.895,7.676c1.953,1.75,4.107,2.559,6.464,2.559
	c2.693,0,5.185-0.74,7.475-2.289c2.222-1.481,3.972-3.3,5.185-5.252l0.403-16.16C608.162,56.222,606.748,56.559,605.133,56.829z"/>
<path d="M626.948,24.441c-0.067-2.895-0.067-5.723-0.135-8.484c-0.067-2.828-0.135-5.454-0.27-8.012s-0.202-4.713-0.404-6.531
	c2.021,0.336,3.636,0.539,4.849,0.539c1.212,0,2.827-0.202,4.848-0.539c-0.135,1.818-0.27,3.973-0.404,6.531
	s-0.202,5.251-0.27,8.012c-0.067,2.828-0.135,5.656-0.135,8.484c-0.067,2.896-0.067,5.521-0.067,7.945V51.98
	c0,1.347,0.404,2.021,1.279,2.021c0.606,0,1.212-0.27,1.886-0.741c0.673-0.472,1.481-1.077,2.289-1.751
	c0.674-0.471,1.751-1.48,3.3-2.895c1.548-1.414,3.299-3.098,5.185-4.982c1.885-1.886,3.838-3.906,5.857-6.06
	c2.021-2.155,3.838-4.175,5.521-6.127c1.414,0.337,2.828,0.539,4.107,0.539c0.808,0,1.548-0.067,2.356-0.134
	c0.808-0.135,1.817-0.202,3.029-0.404c-4.511,3.636-8.888,7.272-12.994,10.84c-4.107,3.569-8.08,7.137-11.783,10.84
	c4.106,4.983,8.281,9.897,12.658,14.88c4.376,4.983,8.753,9.831,13.331,14.68c-1.212-0.135-2.289-0.203-3.299-0.203
	s-1.952,0-2.828,0c-0.808,0-1.683,0-2.559,0c-0.942,0-1.885,0.068-2.895,0.203c-1.549-1.818-3.367-3.906-5.387-6.33
	c-2.021-2.424-3.973-4.78-5.993-7.137c-1.952-2.357-3.838-4.578-5.655-6.666c-1.818-2.088-3.367-3.838-4.646-5.185
	c-0.202-0.27-0.471-0.538-0.74-0.741c-0.27-0.201-0.606-0.336-0.875-0.336c-0.741,0-1.078,0.404-1.078,1.279v6.396
	c0,3.232,0.067,6.396,0.135,9.426c0.135,3.03,0.337,6.128,0.674,9.225c-1.684-0.135-3.3-0.201-4.848-0.201
	c-1.549,0-3.165,0.066-4.849,0.201c0.135-1.684,0.27-3.703,0.404-6.262c0.135-2.491,0.202-5.185,0.27-7.945
	c0.067-2.828,0.135-5.655,0.135-8.483c0.067-2.896,0.067-5.521,0.067-7.945V32.454C627.016,29.962,627.016,27.27,626.948,24.441z"/>
</svg>
