<?xml version="1.0" encoding="utf-8"?>
<!-- Generator: Adobe Illustrator 16.0.0, SVG Export Plug-In . SVG Version: 6.00 Build 0)  -->
<!DOCTYPE svg PUBLIC "-//W3C//DTD SVG 1.1//EN" "http://www.w3.org/Graphics/SVG/1.1/DTD/svg11.dtd">
<svg version="1.1" id="Layer_1" xmlns="http://www.w3.org/2000/svg" xmlns:xlink="http://www.w3.org/1999/xlink" x="0px" y="0px"
	 width="27px" height="27px" viewBox="0 0 27 27" enable-background="new 0 0 27 27" xml:space="preserve">
<path id="ship" fill="#F4C37E" d="M6.9,7.924h13.2V9.1H6.9V7.926V7.924z M18.9,9.685H20.1v1.174H18.9V9.685z M6.9,9.685h1.2v1.174
	H6.9V9.685z M12.9,4.109h1.2v1.174h-1.2V4.109z M14.7,4.109h1.2v1.174h-1.2V4.109z M11.1,4.109h1.2v1.174h-1.2V4.109z M9.3,4.109
	h1.2v1.174H9.3V4.109z M16.5,4.109h1.2v1.174h-1.2V4.109z M24.469,25.309c-0.584,0.352-1.255,0.531-1.936,0.519l3.535-10.38
	c0.098-0.287-0.043-0.602-0.322-0.721L22.5,13.3V7.63c-0.012-0.982-0.817-1.77-1.8-1.76h-0.9V2.935
	c-0.003-0.328-0.272-0.59-0.6-0.587H14.1V0h-1.2v2.348H7.8C7.472,2.345,7.204,2.607,7.2,2.935V5.87H6.3
	C5.317,5.86,4.512,6.647,4.5,7.63v5.67L1.254,14.73c-0.279,0.118-0.419,0.432-0.323,0.72l3.536,10.379
	c-0.681,0.013-1.352-0.167-1.935-0.517C1.765,24.863,0.889,24.637,0,24.656v1.174c0.692-0.019,1.375,0.161,1.968,0.518
	C2.736,26.795,3.612,27.021,4.5,27c0.295,0.004,0.589-0.02,0.88-0.066c0.582-0.098,1.141-0.297,1.652-0.591
	c1.219-0.69,2.711-0.69,3.93,0c1.575,0.875,3.489,0.875,5.063,0c1.223-0.69,2.717-0.69,3.938,0c0.514,0.294,1.074,0.493,1.657,0.591
	c0.29,0.047,0.585,0.07,0.88,0.066c0.889,0.02,1.765-0.208,2.531-0.656c0.594-0.356,1.277-0.536,1.969-0.518v-1.174
	C26.111,24.633,25.235,24.859,24.469,25.309L24.469,25.309z M24.76,15.579l-0.431,1.263l-10.229-4.6v-1.357L24.76,15.579z
	 M8.4,3.522h10.2V5.87H8.4V3.522z M5.7,7.63c0.004-0.327,0.272-0.589,0.6-0.586h14.4c0.327-0.003,0.595,0.259,0.6,0.586v5.138
	l-7.554-3.325c-0.157-0.069-0.335-0.069-0.492,0L5.7,12.768L5.7,7.63L5.7,7.63L5.7,7.63z M2.241,15.578L12.9,10.886v1.357
	l-10.229,4.6L2.241,15.578z M21.324,25.662c-0.277-0.095-0.545-0.214-0.801-0.356c-1.574-0.873-3.488-0.873-5.063,0
	c-1.222,0.69-2.715,0.69-3.936,0c-1.573-0.874-3.485-0.874-5.058,0c-0.253,0.142-0.519,0.259-0.792,0.354l-2.624-7.7l9.848-4.426
	v7.008h1.2v-7.008l9.848,4.426L21.324,25.662z"/>
</svg>
