<svg id="Layer_1" data-name="Layer 1" xmlns="http://www.w3.org/2000/svg" viewBox="0 0 50.74 50.74"><defs><style>.cls-1,.cls-2,.cls-4,.cls-5{fill:#fff;}.cls-2,.cls-3,.cls-4,.cls-5{isolation:isolate;}.cls-2{font-size:16.49px;font-family:Baskerville-Bold, Baskerville;}.cls-2,.cls-4,.cls-5{font-weight:700;}.cls-4,.cls-5{font-size:8.67px;font-family:Averta-Bold, Averta;}.cls-4{letter-spacing:-0.02em;}</style></defs><title>3for1000white-01</title><path class="cls-1" d="M35.27,60.39A25.12,25.12,0,1,1,60.39,35.27h0A25.14,25.14,0,0,1,35.27,60.39Zm0-49.87A24.76,24.76,0,1,0,60,35.31s0,0,0,0A24.79,24.79,0,0,0,35.27,10.52Z" transform="translate(-9.9 -9.9)"/><path class="cls-1" d="M35.27,60.64A25.37,25.37,0,1,1,60.64,35.27h0A25.4,25.4,0,0,1,35.27,60.64Zm0-49.87A24.51,24.51,0,1,0,59.78,35.28h0A24.53,24.53,0,0,0,35.27,10.77Z" transform="translate(-9.9 -9.9)"/><text class="cls-2" transform="translate(13.21 19.7)">3</text><text class="cls-2" transform="translate(8.08 36.28)">$100</text><g class="cls-3"><text class="cls-4" transform="translate(25.03 15.76)">f</text><text class="cls-5" transform="translate(27.79 15.76)">or</text></g><rect class="cls-1" x="25.43" y="18.67" width="9.4" height="0.79"/></svg>