<svg id="Layer_1" data-name="Layer 1" xmlns="http://www.w3.org/2000/svg" viewBox="0 0 50.74 50.74"><defs><style>.cls-1,.cls-3,.cls-4,.cls-5,.cls-6,.cls-7{fill:#4d5564;}.cls-1{stroke:#4d5564;stroke-miterlimit:10;stroke-width:0.5px;}.cls-2,.cls-3,.cls-4,.cls-5,.cls-6{isolation:isolate;}.cls-3,.cls-4{font-size:10.51px;font-family:Baskerville-Bold, Baskerville;font-weight:700;}.cls-4{letter-spacing:-0.04em;}.cls-5,.cls-6{font-size:4.92px;font-family:Averta-Black, Averta;}.cls-5{letter-spacing:0.2em;}.cls-6{letter-spacing:0.18em;}</style></defs><title>bus-grey-01</title><path class="cls-1" d="M33.06,61.12A25.12,25.12,0,1,1,58.17,36h0A25.14,25.14,0,0,1,33.06,61.12Zm0-49.87A24.76,24.76,0,1,0,57.81,36s0,0,0,0A24.79,24.79,0,0,0,33.06,11.24Z" transform="translate(-7.68 -10.63)"/><g class="cls-2"><text class="cls-3" transform="translate(5.65 25.81)">VW </text><text class="cls-4" transform="translate(25.57 25.81)">B</text><text class="cls-3" transform="translate(32.4 25.81)">US</text></g><g class="cls-2"><text class="cls-5" transform="translate(12.78 15.09)">OUR ‘</text><text class="cls-6" transform="translate(30.53 15.09)">6</text><text class="cls-5" transform="translate(34.2 15.09)">9</text></g><path class="cls-7" d="M37,46.58a21.91,21.91,0,0,0,2.81-1.25,31.5,31.5,0,0,1,.09,5.82.45.45,0,0,1-.26.31,3.61,3.61,0,0,1-.89.16q-5.57.21-11.13-.07c-.87,0-.92-.06-.94-.89v-4.3a4.52,4.52,0,0,1,.08-1c.72.42,1.39.8,2,1.21m-.37,3a.28.28,0,0,0,.14.18,1,1,0,0,0,1.24-.27.9.9,0,0,0-.06-1.27l0,0a.94.94,0,0,0-1.26-.13c-.07,0-.09.17-.13.25a.94.94,0,0,0,.2,1.28Zm9.42.12c.64-.65.64-1-.06-1.62h0l.3.08a1,1,0,0,0-1.4.21v0a.91.91,0,0,0,.24,1.26l.12.07a.93.93,0,0,0,1.3-.18l.06-.09Zm.35-3.11c-.15.25-.31.39-.29.52s.21.21.32.32c.11-.12.28-.23.3-.37s0-.21-.21-.44Zm-9.45.49c-.2-.15-.34-.33-.44-.32s-.24.2-.36.31c.12.11.22.29.36.32s.35-.12.56-.28Z" transform="translate(-7.68 -10.63)"/><path class="cls-7" d="M30.51,44.88a2,2,0,0,0-.43-.1H28.4c-.38,0-.48-.12-.42-.49.12-.74.25-1.48.37-2.23a.54.54,0,0,1,.58-.5h3.83a.34.34,0,0,1,.36.37v2.41c0,.32-.2.47-.53.47H30.92A1.94,1.94,0,0,0,30.51,44.88Zm-1.39-1.39.62.4v-.66c0-.83.12-.74-.77-.74-.32,0-.38.11-.27.46l-.35.87h1.06Zm1.43.79H33V42.52H30.87a.41.41,0,0,0-.3.26C30.53,43.28,30.55,43.77,30.55,44.28Zm-2.27,0H29.8c-.33-.56-.82-.26-1.2-.34S28.29,44,28.28,44.28Zm2-2.52c1.91.26,1.91.26,2.14,0Z" transform="translate(-7.68 -10.63)"/><path class="cls-7" d="M38.3,44.75l-.5-.31.07.4-2-.3.2.37L36,45l-.13-.11a.9.9,0,0,0-1-.21,3.27,3.27,0,0,1-1.14.09c-.13,0-.32-.28-.33-.44V42a.35.35,0,0,1,.32-.38h4a.46.46,0,0,1,.46.44l.41,2.3C38.51,44.54,38.46,44.71,38.3,44.75ZM35.2,44l-1.72-.08v.49l1.87-.1L35.19,44l.59.45v-.52Zm-1.75-.17h1.37l-.53-.58c.44.35.81.83,1.52.55v-1c0-.37-.09-.32-.33-.32h-2Zm4.51,0c-.09-.42-.18-.8-.28-1.18a.24.24,0,0,0-.17-.13,3.38,3.38,0,0,0-.69,0,.32.32,0,0,0-.22.22v1.09Zm-1.36.46c.55-.25.55-.24,1.08.08a1.31,1.31,0,0,0,.41.07L38,44H36.6Zm-.47-2.52H34v.12a6.13,6.13,0,0,0,2.14-.1Z" transform="translate(-7.68 -10.63)"/><path class="cls-7" d="M35.49,52v1H31V52Z" transform="translate(-7.68 -10.63)"/><path class="cls-7" d="M37.81,53.78c-.73-.07-.82-.17-.77-.81l2.59-.17c-.08.62-.14,1.26-.25,1.89a.78.78,0,0,1-1.16.63.67.67,0,0,1-.28-.44C37.87,54.52,37.85,54.16,37.81,53.78Z" transform="translate(-7.68 -10.63)"/><path class="cls-7" d="M29.2,53c.07.61,0,.71-.7.78a7.2,7.2,0,0,1-.08,1c-.06.28-.11.6-.55.58-.61,0-.74-.08-.88-.58a1.5,1.5,0,0,1,0-.25l-.16-1.66Z" transform="translate(-7.68 -10.63)"/><path class="cls-7" d="M28,41.92c-.15.8-.29,1.59-.44,2.39a1.28,1.28,0,0,1-.17.43c0,.07-.18.14-.24.11a.28.28,0,0,1-.14-.23q.31-1.29.65-2.57c0-.09.17-.14.26-.21Z" transform="translate(-7.68 -10.63)"/><path class="cls-7" d="M39.39,44.88H39c-.1-.45-.21-.9-.3-1.34s-.18-.92-.27-1.38l.09-.08c.1.07.28.13.3.22Q39.09,43.56,39.39,44.88Z" transform="translate(-7.68 -10.63)"/><path class="cls-7" d="M26.36,52.18l4.29.28A10.71,10.71,0,0,1,26.36,52.18Z" transform="translate(-7.68 -10.63)"/><path class="cls-7" d="M35.79,52.43l4.3-.27a.76.76,0,0,1-.23.13,6.4,6.4,0,0,1-1,.17c-1,.06-1.94.09-2.91.13a.79.79,0,0,1-.22-.06Z" transform="translate(-7.68 -10.63)"/><path class="cls-7" d="M28.28,44.28c0-.24.08-.39.32-.34s.86-.22,1.2.34Z" transform="translate(-7.68 -10.63)"/><path class="cls-7" d="M28.7,43l.43.53.29.34H28.35Z" transform="translate(-7.68 -10.63)"/><path class="cls-7" d="M30.24,41.76h2.14C32.15,42,32.15,42,30.24,41.76Z" transform="translate(-7.68 -10.63)"/><path class="cls-7" d="M38,43.84H36.6V42.75a.32.32,0,0,1,.22-.22,3.38,3.38,0,0,1,.69,0,.24.24,0,0,1,.17.13C37.79,43,37.87,43.43,38,43.84Z" transform="translate(-7.68 -10.63)"/><path class="cls-7" d="M35.19,44l.16.32-1.87.1v-.49L35.2,44Z" transform="translate(-7.68 -10.63)"/><path class="cls-7" d="M36.6,44.31V44H38l.11.48a1.31,1.31,0,0,1-.41-.07C37.15,44.07,37.16,44.06,36.6,44.31Z" transform="translate(-7.68 -10.63)"/><path class="cls-7" d="M36.14,41.79A6.13,6.13,0,0,1,34,41.9v-.12Z" transform="translate(-7.68 -10.63)"/><path class="cls-7" d="M35.2,44l.58-.08v.52L35.19,44Z" transform="translate(-7.68 -10.63)"/><path class="cls-7" d="M29.27,48.39a.72.72,0,0,1,.47.81.81.81,0,0,1-.69.72,2.49,2.49,0,0,1-.48-.07.79.79,0,0,0,1-.39A.9.9,0,0,0,29.27,48.39Z" transform="translate(-7.68 -10.63)"/><rect class="cls-7" x="30.34" y="36.39" width="0.67" height="0.69" rx="0.11" ry="0.11"/><rect class="cls-7" x="18.34" y="33.8" width="0.88" height="0.9" rx="0.15" ry="0.15"/></svg>