<svg id="Layer_1" data-name="Layer 1" xmlns="http://www.w3.org/2000/svg" viewBox="0 0 50.74 50.74"><defs><style>.cls-1{fill:#4b5362;}</style></defs><title>3for100-grey-02</title><path class="cls-1" d="M35.12,60.71A25.12,25.12,0,1,1,60.24,35.59h0A25.14,25.14,0,0,1,35.12,60.71Zm0-49.87A24.76,24.76,0,1,0,59.88,35.6h0A24.79,24.79,0,0,0,35.12,10.84Z" transform="translate(-9.75 -10.26)"/><path class="cls-1" d="M35.12,61A25.37,25.37,0,1,1,60.49,35.6,25.37,25.37,0,0,1,35.12,61Zm0-49.87A24.51,24.51,0,1,0,59.63,35.64v0A24.53,24.53,0,0,0,35.12,11.09Z" transform="translate(-9.75 -10.26)"/><path class="cls-1" d="M28.37,23.49a2.65,2.65,0,0,1,1.8.72,2.54,2.54,0,0,1,.75,2,3.53,3.53,0,0,1-1.37,2.9,5.13,5.13,0,0,1-3.31,1.09,3.92,3.92,0,0,1-2-.46,1.38,1.38,0,0,1-.79-1.21,1,1,0,0,1,.33-.75,1.06,1.06,0,0,1,.71-.29.86.86,0,0,1,.63.24,2.23,2.23,0,0,1,.46.79,1,1,0,0,0,.93.76,1.52,1.52,0,0,0,1.24-.58,3.41,3.41,0,0,0,.47-2.09A6.65,6.65,0,0,0,28.07,25a.65.65,0,0,0-.67-.56,1.06,1.06,0,0,0-.72.37.82.82,0,0,1-.53.3.38.38,0,0,1-.33-.18.59.59,0,0,1-.12-.34.47.47,0,0,1,.12-.33,3.73,3.73,0,0,1,.58-.44,3.18,3.18,0,0,0,1.74-2.53,1.49,1.49,0,0,0-.37-1.09,1.21,1.21,0,0,0-.89-.37,1.37,1.37,0,0,0-.88.32,1,1,0,0,0-.08,1.48.34.34,0,0,1,.1.2,3.84,3.84,0,0,1-.69.37,3.26,3.26,0,0,1-.87.3q-.25,0-.41-.4a2.06,2.06,0,0,1-.16-.74A2.1,2.1,0,0,1,25,19.56a4.6,4.6,0,0,1,2.55-.72,4.18,4.18,0,0,1,2.16.54,1.65,1.65,0,0,1,.91,1.47A2.14,2.14,0,0,1,30,22.37,5.4,5.4,0,0,1,28.37,23.49Z" transform="translate(-9.75 -10.26)"/><path class="cls-1" d="M21.49,46.74a4.45,4.45,0,0,1-2.13-.58,1.44,1.44,0,0,1-.83-1.2,1,1,0,0,1,.23-.63.83.83,0,0,1,.68-.29,1.06,1.06,0,0,1,1,.73,1.58,1.58,0,0,0,1.07,1V42.13a5.1,5.1,0,0,1-2.32-1.59,3.09,3.09,0,0,1-.54-1.69,2.86,2.86,0,0,1,.7-1.85,3.21,3.21,0,0,1,2.14-1v-.53h.93V36a3.69,3.69,0,0,1,2.09.61A1.71,1.71,0,0,1,25.43,38a.88.88,0,0,1-.27.65.85.85,0,0,1-.61.27q-.67,0-1.07-1.13a1.3,1.3,0,0,0-1.06-.9v3a7,7,0,0,1,2.72,1.68,3,3,0,0,1,.68,1.91,3.07,3.07,0,0,1-.87,2.14,4,4,0,0,1-2.53,1.15v2h-.93Zm0-7.31V36.78A1.18,1.18,0,0,0,20.41,38a1.56,1.56,0,0,0,1.08,1.42Zm.93,3.15v3.24a1.89,1.89,0,0,0,1.07-.49,1.34,1.34,0,0,0,.41-1,1.56,1.56,0,0,0-.24-.83,3.3,3.3,0,0,0-1.25-.93Z" transform="translate(-9.75 -10.26)"/><path class="cls-1" d="M28.29,46.5v-.89h.4a1.34,1.34,0,0,0,.75-.17q.25-.17.25-.8V38.51a1.63,1.63,0,0,0-.23-1.08,2.42,2.42,0,0,0-1.32-.21v-.86a6,6,0,0,0,3.33-1h.85v9.2a1.31,1.31,0,0,0,.18.79,1,1,0,0,0,.79.23h.4v.89Z" transform="translate(-9.75 -10.26)"/><path class="cls-1" d="M36,41a6.83,6.83,0,0,1,1-4.17,3.38,3.38,0,0,1,5.5,0,6.57,6.57,0,0,1,1.08,4.08,7.48,7.48,0,0,1-1,4.43,3.28,3.28,0,0,1-2.76,1.41A3.23,3.23,0,0,1,37.69,46a4.21,4.21,0,0,1-1.32-2A9.82,9.82,0,0,1,36,41Zm2.71,0a21.63,21.63,0,0,0,.22,3.71q.22,1.09,1,1.09t.85-.88A20.21,20.21,0,0,0,41,41.07a19,19,0,0,0-.24-3.77c-.16-.63-.46-1-.91-1s-.68.3-.85.91A17.51,17.51,0,0,0,38.68,41Z" transform="translate(-9.75 -10.26)"/><path class="cls-1" d="M44.91,41A6.83,6.83,0,0,1,46,36.83a3.38,3.38,0,0,1,5.5,0,6.57,6.57,0,0,1,1.08,4.08,7.48,7.48,0,0,1-1,4.43,3.28,3.28,0,0,1-2.76,1.41A3.23,3.23,0,0,1,46.62,46a4.21,4.21,0,0,1-1.31-2A9.82,9.82,0,0,1,44.91,41Zm2.71,0a21.63,21.63,0,0,0,.22,3.71q.22,1.09,1,1.09t.85-.88a20.21,20.21,0,0,0,.22-3.85,19,19,0,0,0-.24-3.77c-.16-.63-.46-1-.91-1s-.68.3-.85.91a17.51,17.51,0,0,0-.3,3.79Z" transform="translate(-9.75 -10.26)"/><path class="cls-1" d="M35.38,22.86H35v-1.1h.41V21.1a1.37,1.37,0,0,1,1.4-1.56,2.11,2.11,0,0,1,1.14.33l-.25,1a1.38,1.38,0,0,0-.54-.15c-.23,0-.39.11-.39.46v.61h.81v1.1h-.81V26H35.38Z" transform="translate(-9.75 -10.26)"/><path class="cls-1" d="M37.78,23.88a2.29,2.29,0,1,1,2.38,2.2h-.09a2.15,2.15,0,0,1-2.29-2Q37.78,24,37.78,23.88Zm3.2,0a.92.92,0,1,0-.92.92A.92.92,0,0,0,41,23.88Z" transform="translate(-9.75 -10.26)"/><path class="cls-1" d="M45.69,21.68v1.46h-.32a.89.89,0,0,0-1,1V26H43V21.75h1.4v.57h0a1.53,1.53,0,0,1,1.23-.65Z" transform="translate(-9.75 -10.26)"/><rect class="cls-1" x="25.43" y="18.63" width="9.4" height="0.79"/></svg>