<svg id="Layer_1" data-name="Layer 1" xmlns="http://www.w3.org/2000/svg" viewBox="0 0 88.62 93.47"><defs><style>.cls-1{fill:none;stroke:#4b5362;stroke-linecap:round;stroke-linejoin:round;stroke-width:3px;}</style></defs><title>needle-grey-01</title><path class="cls-1" d="M119.29,58.34c-6.37-.1-32,.22-51.12,19.47-3.4,3.42-10,9.73-13.39,20.08a37.1,37.1,0,0,0-1.52,19.17,33.93,33.93,0,0,0,1.83,6.09" transform="translate(-36.3 -43.05)"/><path class="cls-1" d="M119.29,58.34c.1,6.37.39,32.61-18.87,51.73-3.42,3.4-9.73,10-20.08,13.39A37.1,37.1,0,0,1,61.17,125a33.93,33.93,0,0,1-6.09-1.83" transform="translate(-36.3 -43.05)"/><line class="cls-1" x1="67.87" y1="30.41" x2="6.31" y2="91.97"/><line class="cls-1" x1="42.29" y1="55.99" x2="42.29" y2="40.47"/><line class="cls-1" x1="29.59" y1="68.69" x2="45.1" y2="68.69"/><line class="cls-1" x1="42.29" y1="55.99" x2="57.81" y2="55.99"/><line class="cls-1" x1="54.78" y1="43.49" x2="70.3" y2="43.49"/><line class="cls-1" x1="29.59" y1="68.69" x2="29.59" y2="53.17"/><line class="cls-1" x1="54.78" y1="43.49" x2="54.78" y2="27.97"/><path class="cls-1" d="M64.65,81.45,50.84,69.31s-9.21-7.22-4.2-12.88" transform="translate(-36.3 -43.05)"/><line class="cls-1" x1="86.73" y1="89.78" x2="62.58" y2="68.52"/><path class="cls-1" d="M71.75,73.72,59.9,60.25s-7.41-9-13.26-3.81" transform="translate(-36.3 -43.05)"/><line class="cls-1" x1="87.12" y1="89.39" x2="65.86" y2="65.22"/><line class="cls-1" x1="15.34" y1="18.39" x2="22.02" y2="25.06"/><path class="cls-1" d="M59.72,59.48a18.45,18.45,0,0,0,3.1-14.93" transform="translate(-36.3 -43.05)"/><path class="cls-1" d="M39.55,89.51a11.39,11.39,0,0,1,.35-12.67c2-2.8,4.7-4.18,9.46-7.41A44.73,44.73,0,0,0,55,65" transform="translate(-36.3 -43.05)"/></svg>