<?xml version="1.0" encoding="utf-8"?>
<!-- Generator: Adobe Illustrator 16.0.0, SVG Export Plug-In . SVG Version: 6.00 Build 0)  -->
<!DOCTYPE svg PUBLIC "-//W3C//DTD SVG 1.1//EN" "http://www.w3.org/Graphics/SVG/1.1/DTD/svg11.dtd">
<svg version="1.1" id="Layer_1" xmlns="http://www.w3.org/2000/svg" xmlns:xlink="http://www.w3.org/1999/xlink" x="0px" y="0px"
	 width="177.5px" height="32px" viewBox="-2.556 -2.914 177.5 32" enable-background="new -2.556 -2.914 177.5 32"
	 xml:space="preserve">
<filter  id="blurFilter">  <feGaussianBlur  stdDeviation="2"></feGaussianBlur>
</filter>
<g id="Layer_1_1_">
	<g filter="url(#blurFilter)">
		<path fill="#1D1D1B" d="M30.455,24.945h-4.854L19.938,6.006l-5.665,18.939H9.481L2,2.278h4.194l5.7,18.972l5.667-18.972h4.754
			l5.667,18.972l5.7-18.972h4.191L30.455,24.945z"/>
		<path fill="#1D1D1B" d="M65.647,22.596c-2.504,1.881-6.01,3.006-9.956,3.006c-3.944,0-7.543-1.158-10.016-3.033
			c-3.035-2.283-4.571-5.291-4.571-8.982c0-3.635,1.569-6.637,4.634-8.952c2.536-1.909,6.076-3.068,9.957-3.068
			c3.852,0,7.418,1.16,9.924,3.068c3.034,2.317,4.602,5.352,4.602,8.952C70.216,17.273,68.684,20.311,65.647,22.596z M62.921,7.132
			c-1.812-1.318-4.381-2.129-7.231-2.129c-6.323,0-10.675,3.634-10.675,8.577c0,5.102,4.166,8.576,10.675,8.576
			c6.483,0,10.613-3.504,10.613-8.576C66.302,10.951,65.177,8.79,62.921,7.132z"/>
		<path fill="#1D1D1B" d="M103.999,24.945V6.413h-0.092L92.13,21.189L80.459,6.413h-0.098v18.532h-3.756V2.278h4.667l10.896,13.71
			l10.922-13.71h4.668v22.667H103.999z"/>
		<path fill="#1D1D1B" d="M115.335,24.945V2.278h22.853v3.415h-19.097v5.792h13.277v3.41h-13.277v6.64h19.976v3.416L115.335,24.945
			L115.335,24.945z"/>
		<path fill="#1D1D1B" d="M165.835,24.945L148.489,6.347v18.598h-3.754V2.278h4.666l17.307,18.597V2.278h3.756v22.667H165.835z"/>
	</g>
</g>
<g id="Layer_2">
	<g>
		<path fill="#FFFFFF" d="M28.455,23.945h-4.854L17.938,5.006l-5.665,18.939H7.481L0,1.278h4.194l5.7,18.972l5.667-18.972h4.754
			l5.667,18.972l5.7-18.972h4.191L28.455,23.945z"/>
		<path fill="#FFFFFF" d="M63.647,21.596c-2.504,1.881-6.01,3.006-9.956,3.006c-3.944,0-7.543-1.158-10.016-3.033
			c-3.035-2.283-4.571-5.291-4.571-8.982c0-3.635,1.569-6.637,4.634-8.952c2.536-1.909,6.076-3.068,9.957-3.068
			c3.852,0,7.418,1.16,9.924,3.068c3.034,2.317,4.602,5.352,4.602,8.952C68.216,16.273,66.684,19.311,63.647,21.596z M60.921,6.132
			c-1.812-1.318-4.381-2.129-7.231-2.129c-6.323,0-10.675,3.634-10.675,8.577c0,5.102,4.166,8.576,10.675,8.576
			c6.483,0,10.613-3.504,10.613-8.576C64.302,9.951,63.177,7.79,60.921,6.132z"/>
		<path fill="#FFFFFF" d="M101.999,23.945V5.413h-0.092L90.13,20.189L78.459,5.413h-0.098v18.532h-3.756V1.278h4.667l10.896,13.71
			l10.922-13.71h4.668v22.667H101.999z"/>
		<path fill="#FFFFFF" d="M113.335,23.945V1.278h22.853v3.415h-19.097v5.792h13.277v3.41h-13.277v6.64h19.976v3.416L113.335,23.945
			L113.335,23.945z"/>
		<path fill="#FFFFFF" d="M163.835,23.945L146.489,5.347v18.598h-3.754V1.278h4.666l17.307,18.597V1.278h3.756v22.667H163.835z"/>
	</g>
</g>
</svg>
