<svg xmlns="http://www.w3.org/2000/svg" width="1599.6" height="46.2" viewBox="0 0 1599.6 46.2"><title>Asset 1</title><g id="Layer_2" data-name="Layer 2"><g id="Layer_1-2" data-name="Layer 1"><path d="M1599.6,1.4h-8.1l-11,36.5L1569.6,1.4h-9.2l-10.9,36.5-11-36.5h-8.1L1544.8,45h9.2l10.9-36.5L1575.8,45h9.3ZM1508.7,45V38.4h-38.4V25.6h25.5V19h-25.5V7.9h36.8V1.4h-44V45ZM1432.9,1.4h-7.2V45h7.2Zm-29.8,0H1395l-19.6,36.4L1355.8,1.4h-8.1L1371.2,45h8.3ZM1289.5,8V1.4h-44V45h7.2V25.7h25.5V19.1h-25.5V8h36.8Zm-79.3,15.1c0,9.8-8,16.5-20.4,16.5s-20.5-6.7-20.5-16.5c0-9.5,8.4-16.5,20.5-16.5a24.09,24.09,0,0,1,13.9,4.1,14.93,14.93,0,0,1,6.5,12.4m7.5,0c0-6.9-3-12.8-8.9-17.2C1204,2.2,1197.1,0,1189.7,0s-14.3,2.2-19.2,5.9c-5.9,4.5-8.9,10.2-8.9,17.2a20.58,20.58,0,0,0,8.8,17.3c4.8,3.6,11.7,5.8,19.3,5.8a32.41,32.41,0,0,0,19.2-5.8,20.34,20.34,0,0,0,8.8-17.3M1098.7,8V1.4h-48.9V8h20.8V45.1h7.2V8Zm-72,37V1.4h-7.2V37.2L986.1,1.4h-9V45h7.2V9.2L1017.7,45ZM947.6,1.4h-7.2V45h7.2ZM905,23.1c0,9.8-8,16.5-20.4,16.5s-20.5-6.7-20.5-16.5c0-9.5,8.4-16.5,20.5-16.5a24.09,24.09,0,0,1,13.9,4.1A14.69,14.69,0,0,1,905,23.1m7.6,0c0-6.9-3-12.8-8.9-17.2C898.9,2.2,892,0,884.6,0s-14.3,2.2-19.2,5.9c-5.9,4.5-8.9,10.2-8.9,17.2s3,12.9,8.8,17.3c4.8,3.6,11.7,5.8,19.3,5.8a32.42,32.42,0,0,0,19.2-5.8,20.58,20.58,0,0,0,8.8-17.3m-93.4-1.3H793.1V7.9h25.6c5.9,0,8.9,2.4,8.9,7.2,0,4.4-2.9,6.7-8.4,6.7m1.3-20.4H785.9V45h7.2V28.4h26c10.4,0,15.9-4.8,15.9-13.4,0-8.2-5.6-13.6-14.5-13.6M714.5,45V1.4h-7.2V37.2L674,1.4h-9V45h7.2V9.2L705.6,45ZM629.7,23.1c0,9.8-7.9,16.5-20.4,16.5s-20.5-6.7-20.5-16.5c0-9.5,8.4-16.5,20.5-16.5a24.09,24.09,0,0,1,13.9,4.1,14.93,14.93,0,0,1,6.5,12.4m7.5,0c0-6.9-3-12.8-8.9-17.2C623.5,2.2,616.6,0,609.2,0S594.9,2.2,590,5.9c-5.9,4.5-8.9,10.2-8.9,17.2s3,12.9,8.8,17.3c4.8,3.6,11.7,5.8,19.3,5.8a32.42,32.42,0,0,0,19.2-5.8,20.34,20.34,0,0,0,8.8-17.3M554.3,1.4h-7.2V45h7.2ZM517,45V1.4h-7.2V19.1H474.9V1.4h-7.3V45h7.2V25.7h34.9V45ZM433.7,11.6l4.4-4.9C431.8,2.4,423.9.3,414.5.3c-14.2,0-22,5.1-22,13.3,0,8.4,6.7,10.5,20.2,11.4,12.8.8,20.2.8,20.2,7.1,0,4.7-5.5,7.7-15.9,7.7a40.75,40.75,0,0,1-22.1-6.3l-4,5.2c6.3,5,14.9,7.4,26,7.4,15.5,0,23.8-5.4,23.8-14.5,0-7.3-5.2-11-16-12.4-8.9-1.1-16-.6-20.8-2.3-2.5-.9-3.8-2.2-3.8-4.2,0-3.6,4.8-5.9,13.8-5.9a41.34,41.34,0,0,1,19.8,4.8M357.8,28.7H335.6L346.7,7.6ZM374.4,45,351.3,1.4h-9.1L319.1,45H327l5.1-9.8h29.3l5.1,9.8ZM308.9,8V1.4h-44V45h7.2V25.7h25.5V19.1H272.1V8h36.8ZM197.2,45V38.4H158.8V25.6h25.5V19H158.8V7.9h36.8V1.4h-44V45Zm-75.8,0V1.4h-7.2V19.1h-35V1.4H72V45h7.2V25.7h34.9V45ZM48.9,8V1.4H0V8H20.8V45.1H28V8Z"/></g></g></svg>